<?xml version="1.0" standalone="no"?>
<!DOCTYPE svg PUBLIC "-//W3C//DTD SVG 1.1//EN" "http://www.w3.org/Graphics/SVG/1.1/DTD/svg11.dtd" >
<svg xmlns="http://www.w3.org/2000/svg" xmlns:xlink="http://www.w3.org/1999/xlink" version="1.1">
<metadata>
Created by FontForge 20170731 at Sun Nov 15 18:06:31 1998
 By Aleksey,,,
Copyright 1990-1998 Bitstream Inc.  All rights reserved.
</metadata>
<defs>
<font id="ZapfHumanist601BT-Roman" horiz-adv-x="1124" >
  <font-face 
    font-family="ZapfHumnst BT"
    font-weight="400"
    font-stretch="normal"
    units-per-em="2048"
    panose-1="2 11 5 2 5 5 8 2 3 4"
    ascent="1556"
    descent="-492"
    x-height="965"
    cap-height="1399"
    bbox="-342 -563 2243 1972"
    underline-thickness="96"
    underline-position="-423"
    unicode-range="U+0020-F002"
  />
<missing-glyph horiz-adv-x="1229" 
d="M102 -362v1806h1024v-1806h-1024zM217 -248h795v1577h-795v-1577z" />
    <glyph glyph-name=".notdef" horiz-adv-x="1229" 
d="M102 -362v1806h1024v-1806h-1024zM217 -248h795v1577h-795v-1577z" />
    <glyph glyph-name=".null" horiz-adv-x="0" 
 />
    <glyph glyph-name="nonmarkingreturn" horiz-adv-x="561" 
 />
    <glyph glyph-name="space" unicode=" " horiz-adv-x="561" 
 />
    <glyph glyph-name="exclam" unicode="!" horiz-adv-x="672" 
d="M315 340l-75 915q-1 10 -1.5 22.5t-0.5 39.5q0 52 25 80t71 28t72 -28.5t26 -79.5q0 -27 -0.5 -39.5t-1.5 -22.5l-76 -915h-39zM223 96q0 47 33 80t80 33t80 -33t33 -80q0 -46 -33.5 -80t-79.5 -34q-47 0 -80 33t-33 81z" />
    <glyph glyph-name="quotedbl" unicode="&#x22;" horiz-adv-x="569" 
d="M473 1434v-553h-102v553h102zM199 1434v-553h-101v553h101z" />
    <glyph glyph-name="numbersign" unicode="#" horiz-adv-x="1575" 
d="M975 864h-266l-97 -276h267zM918 1454l-168 -483h264l172 483h127l-170 -483h315l-37 -107h-317l-98 -276h340l-37 -109h-340l-170 -479h-129l172 479h-269l-172 -479h-127l170 479h-327l39 109h325l101 276h-353l35 107h354l173 483h127z" />
    <glyph glyph-name="dollar" unicode="$" 
d="M588 82q107 14 171 88t64 186q0 102 -51.5 159.5t-183.5 100.5v-534zM516 795v469q-100 -6 -164.5 -70.5t-64.5 -157.5q0 -90 55.5 -148.5t173.5 -92.5zM510 -206q0 5 1 17q3 95 3 140v49q-99 0 -191.5 24.5t-168.5 71.5q18 42 32 82t23 78q63 -89 139 -134.5t162 -45.5
h6v557q-191 47 -274.5 128.5t-83.5 217.5q0 138 94.5 233t255.5 117v39q0 33 -4 101v6q6 0 18.5 -1t18.5 -1q10 0 20 0.5t31 2.5q-2 -36 -3 -71.5t-1 -69.5q88 0 164.5 -22t140.5 -66q-25 -34 -44 -66.5t-34 -62.5q-26 68 -82.5 105t-144.5 45v-494l47 -10
q166 -37 251 -126.5t85 -225.5q0 -160 -98.5 -267t-276.5 -141v-49q0 -41 3 -138q1 -16 1 -23q-10 2 -21 3.5t-24 1.5q-11 0 -22 -1.5t-23 -3.5z" />
    <glyph glyph-name="percent" unicode="%" horiz-adv-x="1575" 
d="M1200 600q-78 0 -118 -62t-40 -184q0 -158 37.5 -227.5t120.5 -69.5q80 0 119 63t39 191q0 153 -37.5 221t-120.5 68zM379 1272q-78 0 -118 -63t-40 -185q0 -158 37 -227.5t121 -69.5q79 0 118.5 64t39.5 192q0 153 -37.5 221t-120.5 68zM885 330q0 143 90.5 237.5
t226.5 94.5q135 0 217 -87t82 -233q0 -157 -88 -250.5t-233 -93.5q-133 0 -214 91t-81 241zM358 -190h-96l961 1712h92zM72 999q0 144 90.5 238t226.5 94q135 0 217 -87t82 -232q0 -157 -88 -250.5t-233 -93.5q-133 0 -214 91t-81 240z" />
    <glyph glyph-name="ampersand" unicode="&#x26;" horiz-adv-x="1456" 
d="M639 852q101 72 149 148t48 161q0 83 -43.5 134t-112.5 51q-82 0 -132 -54t-50 -143q0 -66 34 -137.5t107 -159.5zM1100 0q-34 50 -68 94t-67 82q-96 -103 -203 -152t-238 -49q-173 0 -278 93.5t-105 246.5q0 137 83.5 242t279.5 211q-72 87 -105.5 164.5t-33.5 157.5
q0 143 85.5 228t229.5 85q119 0 189.5 -64t70.5 -172q0 -92 -70.5 -187.5t-197.5 -172.5q86 -121 177 -232.5t187 -214.5q63 82 118 183t103 225q17 -16 45 -42t39 -38q-71 -115 -136 -207t-130 -172l143 -167q9 -11 33.5 -36.5t103.5 -105.5q-28 5 -59.5 7.5t-70.5 2.5
q-40 0 -69.5 -2.5t-55.5 -7.5zM924 231q-101 122 -197 243.5t-188 244.5q-121 -70 -178.5 -155t-57.5 -193q0 -128 87 -218t212 -90q96 0 180.5 44.5t141.5 123.5z" />
    <glyph glyph-name="quotesingle" unicode="'" horiz-adv-x="295" 
d="M199 1434v-553h-101v553h101z" />
    <glyph glyph-name="parenleft" unicode="(" horiz-adv-x="563" 
d="M457 -260q-164 172 -242 377t-78 463q0 250 80 461.5t238 379.5l43 -37q-122 -163 -178 -353.5t-56 -442.5q0 -269 56.5 -463t175.5 -338z" />
    <glyph glyph-name="parenright" unicode=")" horiz-adv-x="563" 
d="M109 1425q161 -167 241 -372t80 -451q0 -258 -79 -472.5t-238 -385.5l-43 37q120 159 176.5 351t56.5 446q0 265 -56.5 458.5t-176.5 341.5z" />
    <glyph glyph-name="asterisk" unicode="*" horiz-adv-x="1012" 
d="M532 1014q9 -92 20 -169t25 -142q-15 2 -33.5 4t-35.5 2q-16 0 -32 -1.5t-33 -4.5q11 73 19 149.5t13 160.5q-69 -47 -130.5 -94.5t-115.5 -95.5q-10 31 -26 59t-39 54q88 37 158 69t127 60q-72 36 -145.5 65.5t-145.5 51.5q21 26 38 55t29 61l43 -32q142 -106 209 -151
q-4 76 -15 154.5t-27 155.5q16 -3 33 -4.5t32 -1.5q16 0 33 1.5t32 4.5q-10 -83 -17 -159.5t-11 -151.5q68 46 129 94t116 99q10 -27 26 -54.5t40 -60.5q-72 -28 -143 -60.5t-142 -68.5q75 -33 147 -62t144 -55q-26 -31 -42 -58.5t-26 -56.5q-28 21 -112.5 81.5
t-141.5 101.5z" />
    <glyph glyph-name="plus" unicode="+" horiz-adv-x="1706" 
d="M903 1221v-562h549v-98h-549v-561h-98v561h-551v98h551v562h98z" />
    <glyph glyph-name="comma" unicode="," horiz-adv-x="561" 
d="M90 -358l143 489q14 45 39 69.5t56 24.5q34 0 54.5 -21t20.5 -57q0 -16 -5.5 -33.5t-20.5 -43.5l-254 -443z" />
    <glyph glyph-name="hyphen" unicode="-" horiz-adv-x="682" 
d="M90 430v131h502v-131h-502z" />
    <glyph glyph-name="period" unicode="." horiz-adv-x="561" 
d="M166 94q0 48 33.5 81.5t81.5 33.5q47 0 80.5 -33.5t33.5 -81.5q0 -46 -34 -79t-80 -33q-48 0 -81.5 32.5t-33.5 79.5z" />
    <glyph glyph-name="slash" unicode="/" horiz-adv-x="575" 
d="M-43 -190l561 1726h90l-561 -1726h-90z" />
    <glyph glyph-name="zero" unicode="0" 
d="M84 666q0 345 121 521.5t356 176.5q241 0 360 -174t119 -524q0 -342 -122 -519.5t-357 -177.5t-356 177t-121 520zM256 668q0 -336 72.5 -484.5t234.5 -148.5q167 0 236 143t69 514q0 314 -73.5 460t-231.5 146q-162 0 -234.5 -146.5t-72.5 -483.5z" />
    <glyph glyph-name="one" unicode="1" 
d="M504 0q10 238 15 470.5t5 459.5q0 80 -1.5 155.5t-4.5 149.5l-311 -180q-13 29 -29 52t-37 42q109 40 241.5 101t322.5 157q-10 -183 -14.5 -433t-4.5 -620q0 -131 1 -207.5t3 -146.5q-21 4 -43.5 6t-48.5 2t-49 -2t-45 -6z" />
    <glyph glyph-name="two" unicode="2" 
d="M96 0v35q416 407 536 594t120 360q0 141 -64.5 221t-175.5 80q-93 0 -159 -60.5t-103 -180.5q-21 36 -41.5 64t-40.5 50q65 98 162.5 149.5t216.5 51.5q181 0 283 -97.5t102 -271.5q0 -96 -37.5 -183.5t-122.5 -186.5q-44 -53 -199 -213t-257 -274q38 -2 81 -2.5
t121 -0.5q85 0 184 4.5t244 13.5q-2 -24 -3 -37.5t-1 -23.5q0 -22 1.5 -45t4.5 -47q-169 2 -257.5 3t-164.5 1q-139 0 -418 -4h-12z" />
    <glyph glyph-name="three" unicode="3" 
d="M127 37q12 40 20 81.5t11 83.5q41 -76 118.5 -119.5t172.5 -43.5q147 0 226 91.5t79 264.5q0 130 -68.5 203.5t-187.5 73.5q-25 0 -54 -3t-63 -10q0 2 1 6q3 23 3 35q0 8 -1 17t-3 26q8 -1 17 -1.5t28 -0.5q136 0 203 73t67 220q0 123 -58.5 193.5t-158.5 70.5
q-78 0 -139.5 -48t-89.5 -132q-23 37 -42.5 64.5t-37.5 48.5q67 66 151.5 99.5t186.5 33.5q169 0 265.5 -85.5t96.5 -236.5q0 -113 -70 -195t-214 -136q172 -6 262 -89.5t90 -236.5q0 -188 -137.5 -303t-362.5 -115q-92 0 -171 18t-140 52z" />
    <glyph glyph-name="four" unicode="4" 
d="M205 500h471v674q-54 -60 -176.5 -234.5t-294.5 -439.5zM662 0q0 8 1 27q9 152 9 252q0 15 -1 49t-1 53h-12q-197 4 -291 4q-86 0 -168 -1.5t-160 -4.5v31q139 185 291.5 404.5t367.5 543.5q2 0 6 -1q39 -3 60 -3q11 0 24 0.5t41 3.5q-5 -80 -7.5 -234.5t-2.5 -367.5
q0 -101 0.5 -154t1.5 -102q12 -1 26 -1.5t42 -0.5q31 0 60.5 1.5t57.5 4.5l1 -123q-40 0 -86.5 1.5t-99.5 4.5q-2 -60 -2.5 -114t-0.5 -111t1.5 -92.5t4.5 -69.5q-13 2 -29 3t-51 1q-33 0 -50.5 -1t-32.5 -3z" />
    <glyph glyph-name="five" unicode="5" 
d="M127 41q11 44 20.5 86t16.5 83q45 -83 119.5 -127t171.5 -44q142 0 226.5 101t84.5 272q0 145 -74 225t-209 80q-61 0 -112.5 -15t-98.5 -47l-26 7q6 51 9 109t3 120q0 124 -4 235t-12 205q56 -7 122.5 -10.5t147.5 -3.5q76 0 173 3.5t214 10.5q-3 -22 -4.5 -42t-1.5 -40
q0 -17 1.5 -32.5t4.5 -28.5q-32 5 -74 7.5t-137 2.5h-335q-8 -95 -11.5 -190.5t-3.5 -192.5v-65q33 23 90 35t139 12q174 0 273.5 -100.5t99.5 -276.5q0 -206 -139 -329.5t-373 -123.5q-91 0 -166 18.5t-135 55.5z" />
    <glyph glyph-name="six" unicode="6" 
d="M303 391q0 -157 74.5 -256.5t189.5 -99.5q126 0 198.5 96t72.5 264q0 163 -66.5 248.5t-191.5 85.5q-124 0 -200.5 -92.5t-76.5 -245.5zM289 631q67 87 153.5 130.5t192.5 43.5q173 0 276 -103t103 -276q0 -209 -122 -333t-327 -124q-211 0 -329.5 153t-118.5 425
q0 366 171 594.5t439 228.5q31 0 64.5 -5.5t70.5 -17.5q0 -8 -1 -24t-1 -25q0 -8 1 -23t1 -24q-32 25 -70.5 37t-82.5 12q-169 0 -282 -178.5t-138 -490.5z" />
    <glyph glyph-name="seven" unicode="7" 
d="M173 0q82 125 270 443t423 735h-379q-96 0 -172.5 -3.5t-138.5 -10.5q2 13 3 29.5t1 49.5q0 37 -1 55t-3 33q111 -5 254 -7.5t303 -2.5q95 0 164 2.5t127 7.5v-51q-279 -477 -463.5 -813t-238.5 -467q-14 2 -30.5 3t-47.5 1t-46 -1t-25 -3z" />
    <glyph glyph-name="eight" unicode="8" 
d="M356 1042q0 -126 53 -192t154 -66q103 0 161 66.5t58 185.5q0 133 -52 196.5t-161 63.5q-102 0 -157.5 -66t-55.5 -188zM293 371q0 -159 70.5 -245.5t199.5 -86.5q126 0 197 87.5t71 244.5q0 176 -63.5 263t-194.5 87q-138 0 -209 -88.5t-71 -261.5zM424 756
q-125 40 -184.5 108.5t-59.5 171.5q0 149 104.5 238.5t278.5 89.5q182 0 281.5 -79t99.5 -224q0 -112 -60 -187t-179 -112q156 -39 232.5 -129t76.5 -236q0 -195 -122.5 -311.5t-328.5 -116.5q-214 0 -333 105.5t-119 294.5q0 143 76 237t237 150z" />
    <glyph glyph-name="nine" unicode="9" 
d="M549 1303q-125 0 -203 -104t-78 -271q0 -143 74 -226.5t201 -83.5q130 0 201 90t71 255q0 162 -69.5 251t-196.5 89zM217 6q0 7 1 22t1 23q0 11 -1 34t-1 34q51 -40 104.5 -60t108.5 -20q83 0 147.5 37t118.5 117q60 86 94.5 213t34.5 260q0 15 -0.5 27.5t-1.5 24.5
q-49 -90 -134.5 -135.5t-205.5 -45.5q-170 0 -274.5 107t-104.5 284q0 194 127.5 316t329.5 122q212 0 328.5 -149t116.5 -422q0 -373 -163 -598.5t-429 -225.5q-52 0 -101 9t-96 26z" />
    <glyph glyph-name="colon" unicode=":" horiz-adv-x="668" 
d="M221 807q0 47 33 80t80 33t81 -33.5t34 -79.5t-34.5 -80.5t-80.5 -34.5q-47 0 -80 34t-33 81zM221 94q0 47 33 80t80 33t81 -33t34 -80q0 -46 -34.5 -79t-80.5 -33q-47 0 -80 32.5t-33 79.5z" />
    <glyph glyph-name="semicolon" unicode=";" horiz-adv-x="668" 
d="M135 -356l144 492q12 42 37 66.5t55 24.5q33 0 56.5 -22.5t23.5 -57.5q0 -17 -6 -34t-21 -41l-254 -443zM233 807q0 46 34.5 79.5t80.5 33.5q47 0 80 -33t33 -80q0 -46 -33.5 -80.5t-79.5 -34.5t-80.5 34t-34.5 81z" />
    <glyph glyph-name="less" unicode="&#x3c;" horiz-adv-x="1706" 
d="M1442 1026l-1022 -416l1022 -413v-109l-1178 481v82l1178 484v-109z" />
    <glyph glyph-name="equal" unicode="=" horiz-adv-x="1706" 
d="M1452 473v-98h-1198v98h1198zM1452 846v-98h-1198v98h1198z" />
    <glyph glyph-name="greater" unicode="&#x3e;" horiz-adv-x="1706" 
d="M1442 651v-82l-1178 -481v109l1022 413l-1022 416v109z" />
    <glyph glyph-name="question" unicode="?" horiz-adv-x="788" 
d="M535 426l-17 -59q-18 -6 -35 -8.5t-34 -2.5q-107 0 -170.5 66t-63.5 176q0 61 28.5 117.5t98.5 130.5l135 141q53 55 72.5 97t19.5 94q0 81 -46.5 129.5t-125.5 48.5q-69 0 -120 -33.5t-78 -95.5l-21 125q63 38 121.5 55.5t118.5 17.5q134 0 213.5 -79t79.5 -213
q0 -68 -31.5 -133.5t-95.5 -135.5l-115 -121q-75 -79 -100 -123t-25 -88q0 -52 33 -85t86 -33q15 0 32 3t40 9zM305 94q0 47 33 80t80 33t79.5 -33t32.5 -80q0 -46 -33 -79t-79 -33q-48 0 -80.5 32.5t-32.5 79.5z" />
    <glyph glyph-name="at" unicode="@" horiz-adv-x="2048" 
d="M1298 836l60 125h94l-139 -562q-10 -44 -13.5 -62.5t-3.5 -29.5q0 -43 28.5 -67.5t78.5 -24.5q52 0 106.5 21t104.5 61q97 77 151 204.5t54 282.5q0 254 -198 417t-509 163q-175 0 -320 -49.5t-262 -149.5q-147 -126 -222 -290.5t-75 -362.5q0 -174 60 -305t184 -232
q102 -82 244 -128t301 -46q171 0 334.5 49.5t300.5 143.5l39 -55q-147 -111 -311 -166.5t-343 -55.5q-191 0 -347 46.5t-275 138.5q-155 118 -229 273.5t-74 361.5q0 204 86 381.5t252 314.5q132 109 298.5 165t360.5 56q162 0 308 -44t249 -124q129 -99 194.5 -228
t65.5 -280q0 -171 -62 -309.5t-181 -232.5q-70 -54 -149 -82.5t-161 -28.5q-97 0 -144.5 37.5t-47.5 113.5q0 4 1 14t1 15q-51 -87 -127 -133.5t-168 -46.5q-153 0 -233 83.5t-80 244.5q0 230 135 388t329 158q94 0 158 -41t96 -122zM1210 469l62 248q-18 93 -75.5 145.5
t-139.5 52.5q-154 0 -254.5 -133.5t-100.5 -337.5q0 -111 55 -173t152 -62q107 0 189.5 71.5t111.5 188.5z" />
    <glyph glyph-name="A" unicode="A" horiz-adv-x="1268" 
d="M373 637q11 0 63 -1t92 -1q31 0 123 1t152 1l-35 90q-8 22 -42.5 104.5t-133.5 313.5zM-8 0q192 420 346 767t287 658h39q143 -359 291.5 -715t301.5 -709q-27 4 -51.5 6.5t-48.5 2.5t-49.5 -2.5t-54.5 -7.5q-36 112 -80 228.5t-94 236.5l-35 82q-45 2 -96.5 3t-155.5 1
q-106 0 -158 -1t-96 -3q-49 -113 -99.5 -243.5t-111.5 -303.5q-17 5 -34 7.5t-34 2.5q-15 0 -32 -2.5t-35 -7.5z" />
    <glyph glyph-name="B" unicode="B" horiz-adv-x="1221" 
d="M367 784q31 -3 59.5 -4.5t54.5 -1.5q187 0 283 75.5t96 221.5q0 126 -86.5 192t-251.5 66q-31 0 -66 -2.5t-79 -7.5q-5 -57 -7.5 -121t-2.5 -143v-275zM183 -4q10 103 15 229t5 336q0 289 -3 498t-10 340q14 -1 37 -2q47 -2 62 -2q19 0 102 4t146 4q264 0 387 -76
t123 -240q0 -134 -86 -217.5t-259 -117.5q196 -21 289.5 -103.5t93.5 -234.5q0 -205 -140.5 -311.5t-412.5 -106.5q-51 0 -131 4t-110 4q-19 0 -41 -1.5t-67 -6.5zM360 698v-202q0 -151 3 -244.5t10 -163.5q38 -9 72.5 -13.5t66.5 -4.5q180 0 283.5 86t103.5 235
q0 161 -97 238.5t-298 77.5q-34 0 -123 -7q-13 -1 -21 -2z" />
    <glyph glyph-name="C" unicode="C" horiz-adv-x="1343" 
d="M1257 88q-77 -57 -192.5 -86t-265.5 -29q-341 0 -528 190t-187 535q0 332 206.5 529.5t553.5 197.5q121 0 232 -24.5t208 -73.5q-16 -53 -24.5 -101.5t-8.5 -95.5q-73 114 -173 167t-240 53q-258 0 -400.5 -171.5t-142.5 -482.5q0 -300 141.5 -472.5t386.5 -172.5
q115 0 229 44t218 128z" />
    <glyph glyph-name="D" unicode="D" horiz-adv-x="1546" 
d="M367 88q66 -5 118 -7.5t97 -2.5q339 0 505 154.5t166 469.5q0 329 -136 475t-443 146q-85 0 -160.5 -2.5t-146.5 -7.5q-5 -129 -7 -267t-2 -294q0 -191 2 -354t7 -310zM182 0q5 116 6.5 258t1.5 440q0 309 -1.5 449.5t-5.5 251.5q49 -2 84.5 -3t68.5 -1q41 0 173.5 5
t223.5 5q175 0 277 -23t180 -75q127 -86 194.5 -231t67.5 -335q0 -364 -206 -554.5t-601 -190.5q-47 0 -147 4t-152 4q-16 0 -72.5 -1.5t-91.5 -2.5z" />
    <glyph glyph-name="E" unicode="E" horiz-adv-x="1014" 
d="M182 0q9 129 13 301.5t4 413.5q0 222 -4 388t-13 296q43 -2 93.5 -3t158.5 -1q140 0 248.5 1t220.5 3q0 -9 -1 -29t-1 -31q0 -9 1 -29t1 -30q-116 10 -238 15t-247 5h-49q-1 -119 -1.5 -227t-0.5 -205v-82h36q93 0 205.5 4.5t239.5 11.5q-2 -22 -3 -36t-1 -27
q0 -11 1 -24t3 -33q-49 9 -122.5 12.5t-264.5 3.5h-94v-98q0 -175 0.5 -284.5t1.5 -215.5h51q88 0 215 6t276 17q0 -10 -1 -30.5t-1 -31.5q0 -10 1 -30.5t1 -30.5q-58 2 -129.5 3t-220.5 1q-152 0 -231 -1t-148 -3z" />
    <glyph glyph-name="F" unicode="F" horiz-adv-x="1010" 
d="M184 0q9 107 13 234t4 286q0 220 -4 439.5t-12 439.5q39 -2 94 -3t184 -1q152 0 252.5 1t199.5 3q0 -11 -1 -34t-1 -34t1 -32.5t1 -32.5q-68 15 -182.5 23t-310.5 11h-49q-3 -58 -4.5 -123t-1.5 -186v-141v-64h163q98 0 181 4t165 13q0 -10 -1 -23t-1 -39
q0 -24 0.5 -35.5t1.5 -21.5q-168 9 -275.5 12.5t-174.5 3.5h-59v-471q0 -113 1.5 -156.5t6.5 -72.5q-24 4 -49 6t-54 2q-25 0 -46.5 -2t-41.5 -6z" />
    <glyph glyph-name="G" unicode="G" horiz-adv-x="1495" 
d="M1393 61q-144 -42 -282 -64t-263 -22q-352 0 -557 190t-205 513q0 340 220.5 543.5t590.5 203.5q148 0 275 -33t229 -98q-16 -47 -28 -91.5t-21 -88.5q-82 118 -202 176t-286 58q-259 0 -417 -178t-158 -474q0 -292 164.5 -468.5t435.5 -176.5q87 0 168.5 17t163.5 53
q0 19 3 89.5t3 111.5q0 48 -2 105.5t-6 156.5q35 -5 52.5 -6.5t33.5 -2.5q15 1 33 2.5t52 6.5q-2 -109 -4 -189.5t-2 -132.5q0 -60 2 -109.5t7 -91.5z" />
    <glyph glyph-name="H" unicode="H" horiz-adv-x="1569" 
d="M183 0q9 144 13.5 325t4.5 429q0 257 -4.5 399t-14.5 246q26 -4 50 -6t51 -2q26 0 50 2t46 6q-8 -55 -11 -151t-3 -369v-80q74 -1 161.5 -1.5t261.5 -0.5q173 0 260.5 0.5t161.5 1.5v80q0 144 -4 272.5t-12 247.5q21 -4 44.5 -6t51.5 -2t52.5 2t48.5 6q-9 -125 -13 -272
t-4 -373q0 -197 4 -384.5t13 -369.5q-24 4 -49.5 6t-53.5 2q-26 0 -50 -2t-44 -6q8 125 12 281.5t4 330.5v96q-106 4 -211.5 5.5t-210.5 1.5t-211 -1.5t-212 -4.5v-97q0 -329 3 -441t11 -171q-25 4 -50 6t-53 2q-26 0 -49.5 -2t-43.5 -6z" />
    <glyph glyph-name="I" unicode="I" horiz-adv-x="563" 
d="M188 0q7 100 10 222.5t3 305.5v170q0 327 -3 463.5t-10 237.5q21 -4 43.5 -6t49.5 -2t50.5 2t47.5 6q-7 -69 -9.5 -161t-2.5 -241v-299v-338q0 -162 2.5 -233.5t9.5 -126.5q-22 4 -45 6t-49 2q-27 0 -51 -2t-46 -6z" />
    <glyph glyph-name="J" unicode="J" horiz-adv-x="563" 
d="M-39 -285l-12 60q152 20 208 111.5t56 369.5q0 394 -5 708.5t-11 432.5l5 -1q51 -7 77 -7q23 0 48 2.5t52 6.5q-4 -98 -6 -224.5t-2 -294.5q0 -227 4 -455t4 -229q0 -235 -97.5 -346t-320.5 -134z" />
    <glyph glyph-name="K" unicode="K" horiz-adv-x="1188" 
d="M185 0q7 115 10.5 254.5t3.5 351.5q0 272 -3.5 466.5t-10.5 326.5q20 -4 42 -6t47 -2q28 0 52.5 2t46.5 6q-6 -66 -9.5 -149t-3.5 -183v-313q2 -4 4 -5t7 -1q43 0 218 176.5t423 474.5q21 -4 42.5 -6t47.5 -2t48.5 2t43.5 6q-79 -60 -307 -289l-37 -37l-301 -297
q147 -186 533 -625l132 -151q-33 5 -63 7.5t-57 2.5q-28 0 -56.5 -2.5t-58.5 -7.5q-74 102 -133 180t-107 137l-235 291q-46 55 -78 77t-65 24l-1 -244q0 -149 3 -258.5t9 -206.5q-26 5 -50 7.5t-46 2.5q-21 0 -43 -2.5t-48 -7.5z" />
    <glyph glyph-name="L" unicode="L" horiz-adv-x="1006" 
d="M185 0q5 180 8.5 353t3.5 345q0 191 -3 362t-10 339q23 -4 46 -6t51 -2q26 0 49.5 2t44.5 6q-8 -200 -12.5 -384t-4.5 -343q0 -165 2.5 -305t8.5 -271q22 -1 49.5 -1.5t89.5 -0.5q134 0 238 7.5t180 23.5q0 -9 -1 -29.5t-1 -32.5q0 -9 1 -30t0 -33q-181 3 -299 4.5
t-175 1.5q-73 0 -139.5 -1.5t-126.5 -4.5z" />
    <glyph glyph-name="M" unicode="M" horiz-adv-x="1796" 
d="M72 0q38 169 86 490.5t125 934.5h34q182 -364 318 -627t258 -485q134 237 282 508.5t324 603.5h27q28 -270 65.5 -601t95.5 -824q-25 5 -47.5 7.5t-44.5 2.5q-21 0 -43.5 -2.5t-47.5 -7.5q-26 360 -54.5 632t-52.5 390q-190 -319 -329.5 -590.5t-195.5 -429.5h-28
q-23 80 -67.5 178t-127.5 250l-319 590q-47 -330 -73 -594t-28 -426q-20 5 -38.5 7.5t-36.5 2.5t-38 -2.5t-44 -7.5z" />
    <glyph glyph-name="N" unicode="N" horiz-adv-x="1528" 
d="M168 1q13 276 20 577.5t7 629.5v217h38q220 -254 460 -511.5t546 -565.5q0 10 1 31q3 105 3 149q0 247 -4 469.5t-12 400.5q27 -4 40.5 -5.5t24.5 -1.5q12 0 26 1.5t38 5.5q-8 -234 -12.5 -472.5t-4.5 -487.5q0 -90 1 -193t3 -272h-26q-94 117 -222.5 260.5t-301.5 325.5
l-496 522q-1 -23 -3.5 -117t-2.5 -151q0 -125 4 -319.5t12 -493.5q-18 5 -35.5 7.5t-33.5 2.5t-32.5 -2.5t-37.5 -6.5z" />
    <glyph glyph-name="O" unicode="O" horiz-adv-x="1679" 
d="M840 49q264 0 406.5 168.5t142.5 480.5q0 318 -140 483t-409 165q-265 0 -408 -171t-143 -485q0 -310 142.5 -475.5t408.5 -165.5zM840 -29q-351 0 -553.5 194.5t-202.5 530.5q0 331 206 529t550 198q348 0 550.5 -196t202.5 -531q0 -325 -207 -525t-546 -200z" />
    <glyph glyph-name="P" unicode="P" horiz-adv-x="1126" 
d="M357 715q15 -1 34.5 -1.5t57.5 -0.5q220 0 330 79t110 238t-92 229t-303 70q-40 0 -120 -7l-5 -1q0 -65 -6.5 -205.5t-6.5 -216.5zM181 0q5 169 8.5 344t3.5 354q0 188 -3.5 363t-9.5 340q26 -4 51 -6t50 -2q48 0 161.5 7t180.5 7q219 0 338.5 -93.5t119.5 -264.5
q0 -199 -147 -306.5t-420 -107.5q-28 0 -67.5 1.5t-89.5 4.5l-1 -293q0 -63 3 -149t9 -197q-34 5 -52 6.5t-33 1.5q-23 0 -48.5 -2.5t-53.5 -7.5z" />
    <glyph glyph-name="Q" unicode="Q" horiz-adv-x="1679" 
d="M840 49q265 0 408 168.5t143 480.5q0 318 -141 484t-410 166q-264 0 -407.5 -171.5t-143.5 -486.5q0 -310 142.5 -475.5t408.5 -165.5zM926 -23q-40 -3 -69 -4.5t-50 -1.5q-157 0 -289 50.5t-231 148.5q-104 100 -153.5 229t-49.5 297q0 331 206 529t550 198
q348 0 550.5 -196t202.5 -531q0 -260 -132.5 -440t-379.5 -256q106 -81 230.5 -170.5t267.5 -185.5q-39 -15 -77 -37.5t-77 -55.5q-125 121 -249.5 227.5t-249.5 198.5z" />
    <glyph glyph-name="R" unicode="R" horiz-adv-x="1219" 
d="M367 748q13 -2 27.5 -2.5t39.5 -0.5q230 0 343.5 75t113.5 227q0 138 -88.5 208t-263.5 70q-32 0 -126 -6q-22 -1 -34 -2q-6 -46 -9 -97t-3 -112v-90v-270zM187 0q6 108 9 247t3 451q0 265 -3 425.5t-10 275.5q8 -1 20 -1q56 -3 75 -3q38 0 147 4t180 4
q232 0 346.5 -82.5t114.5 -249.5q0 -145 -106.5 -244t-303.5 -135q146 -194 518 -653l31 -39q-34 5 -64 7.5t-59 2.5q-28 0 -57 -2.5t-62 -6.5q-79 115 -140.5 200.5t-114.5 154.5l-224 287q-17 24 -36 34.5t-45 10.5q-12 0 -34 -3q-4 -1 -5 -1v-375q0 -69 3 -146t8 -163
q-27 5 -50 7.5t-45 2.5t-46 -2.5t-50 -7.5z" />
    <glyph glyph-name="S" unicode="S" horiz-adv-x="1004" 
d="M86 82q18 54 29.5 108.5t15.5 108.5q45 -115 134.5 -179.5t203.5 -64.5q133 0 213 82t80 219q0 95 -46 153.5t-161 104.5l-166 70q-142 59 -207 141t-65 203q0 174 120 284.5t312 110.5q83 0 159 -18.5t152 -56.5q-15 -33 -29.5 -71.5t-27.5 -86.5q-54 79 -125 118.5
t-158 39.5q-113 0 -179.5 -68.5t-66.5 -185.5q0 -86 47.5 -143.5t159.5 -106.5l166 -72q146 -62 208.5 -145t62.5 -211q0 -199 -134 -321t-354 -122q-101 0 -188 28t-156 81z" />
    <glyph glyph-name="T" unicode="T" horiz-adv-x="1116" 
d="M461 0q6 253 9 493.5t3 467.5v342h-55q-122 0 -216.5 -6.5t-160.5 -18.5q2 20 3 33t1 24q0 12 -1 26.5t-3 37.5q117 -3 238.5 -4.5t250.5 -1.5q131 0 266.5 1.5t278.5 3.5q-2 -9 -3 -21t-1 -38q0 -25 1 -37.5t3 -23.5q-70 13 -158 19t-204 6l-60 -1q-5 -87 -7.5 -196.5
t-2.5 -261.5q0 -195 3 -407t9 -437q-23 3 -46 4.5t-48 1.5q-23 0 -48 -1.5t-52 -4.5z" />
    <glyph glyph-name="U" unicode="U" horiz-adv-x="1536" 
d="M186 1399q21 -4 43 -6t47 -2q30 0 53 2.5t44 6.5q-4 -262 -6 -468t-2 -277q0 -189 23.5 -285.5t78.5 -162.5q56 -68 142 -103.5t194 -35.5q107 0 195 37t143 106t77.5 176t22.5 371q0 175 -2 333.5t-6 307.5q15 -4 30.5 -6t32.5 -2q20 0 36.5 2t31.5 5q-5 -122 -7.5 -224
t-2.5 -148v-53q0 -391 -19 -533t-65 -223q-71 -121 -196.5 -182.5t-303.5 -61.5q-304 0 -444 147.5t-140 469.5q0 12 4.5 153t4.5 269q0 96 -7 331q-1 37 -2 56z" />
    <glyph glyph-name="V" unicode="V" horiz-adv-x="1268" 
d="M569 1q-157 411 -294 755.5t-263 642.5q24 -4 48.5 -6t52.5 -2t53 2t47 6q103 -287 218.5 -585.5t244.5 -610.5q126 306 240 605t214 591q16 -4 32.5 -6t35.5 -2q20 0 37.5 2t32.5 6q-143 -338 -283 -686t-280 -712q-19 4 -35.5 6.5t-32.5 2.5t-32.5 -2.5t-35.5 -6.5z
" />
    <glyph glyph-name="W" unicode="W" horiz-adv-x="2011" 
d="M474 0q-83 272 -185 598.5t-254 800.5q22 -4 46 -6t52 -2t52 2t46 6q85 -312 173 -612t182 -592q106 291 202.5 592t182.5 612q15 -4 31 -6t34 -2q19 0 36 2t32 6q90 -295 188.5 -591.5t204.5 -592.5q101 290 190 586t166 597q15 -3 31 -5t35 -2q20 0 37.5 2t32.5 6
q-140 -411 -404 -1207l-63 -192q-17 4 -34.5 6t-37.5 2q-21 0 -39 -2t-35 -6q-77 264 -170.5 548t-206.5 597q-160 -487 -250.5 -757.5t-132.5 -387.5q-21 5 -38 7.5t-33 2.5t-34 -2.5t-37 -7.5z" />
    <glyph glyph-name="X" unicode="X" horiz-adv-x="1145" 
d="M44 0q117 181 220 336.5t191 284.5l49 73l-37 66q-49 87 -144.5 247t-235.5 392q32 -6 57.5 -8t50.5 -2q24 0 51 2.5t55 7.5q88 -170 155 -292.5t107 -186.5l47 -74l49 72q56 81 127 202.5t154 278.5q15 -5 33 -7.5t41 -2.5t41.5 2.5t33.5 6.5q-152 -218 -257.5 -373
t-139.5 -210l-35 -53l43 -72q102 -169 344 -568l74 -122q-31 5 -58 7.5t-52 2.5q-27 0 -54.5 -2.5t-58.5 -7.5q-64 129 -136 259.5t-157 270.5l-49 82l-49 -71q-53 -77 -134.5 -218.5t-176.5 -321.5q-21 4 -39 6.5t-35 2.5q-19 0 -37 -2.5t-38 -7.5z" />
    <glyph glyph-name="Y" unicode="Y" horiz-adv-x="1098" 
d="M467 0q5 86 7.5 157t2.5 136q0 64 -2.5 133.5t-7.5 146.5q-144 249 -262.5 450.5t-222.5 375.5q25 -4 52.5 -6t59.5 -2t60 2t53 6q81 -184 176.5 -357.5t206.5 -336.5q106 172 198 345.5t170 348.5q19 -4 37.5 -6t38.5 -2q22 0 40.5 2t35.5 6q-129 -210 -245 -407.5
t-220 -385.5q-2 -88 -3 -133t-1 -84q0 -87 2.5 -183.5t7.5 -205.5q-23 5 -45.5 7.5t-44.5 2.5t-45 -2.5t-49 -7.5z" />
    <glyph glyph-name="Z" unicode="Z" horiz-adv-x="1227" 
d="M17 0q239 338 459 663t421 637q-29 2 -62 2.5t-102 0.5q-138 0 -291.5 -6t-322.5 -17v5q4 36 4 54q0 12 -1 25.5t-3 33.5q222 -4 334 -5.5t209 -1.5q95 0 206.5 1.5t333.5 6.5q-254 -336 -478.5 -659t-422.5 -635q101 -3 152 -4t94 -1q146 0 301 6t317 17
q-1 -11 -1.5 -23.5t-0.5 -38.5q0 -27 0.5 -39t1.5 -22q-59 1 -288 3.5t-365 2.5q-127 0 -251 -1.5t-244 -4.5z" />
    <glyph glyph-name="bracketleft" unicode="[" horiz-adv-x="563" 
d="M154 -225q2 45 3 117.5t1 271.5v422v422q0 199 -1 272.5t-3 118.5q24 0 73.5 -1t75.5 -1q25 0 77 1t79 1v-72q-16 4 -33.5 6t-46.5 2h-27h-67q-6 -82 -8.5 -202.5t-2.5 -313.5v-233v-234q0 -191 2.5 -310.5t8.5 -203.5h94q29 0 46.5 2t33.5 6v-71q-29 1 -61.5 1.5
t-96.5 0.5q-61 0 -91 -0.5t-56 -1.5z" />
    <glyph glyph-name="backslash" unicode="\" horiz-adv-x="575" 
d="M-43 1536h90l561 -1726h-90z" />
    <glyph glyph-name="bracketright" unicode="]" horiz-adv-x="563" 
d="M377 1399q-2 -41 -3 -112t-1 -271v-430v-418q0 -201 1 -274.5t3 -118.5q-26 1 -56 1.5t-94 0.5q-62 0 -94.5 -0.5t-60.5 -1.5v71q16 -4 33 -6t47 -2h26l68 1q5 67 7.5 166.5t2.5 346.5v234v233q0 250 -2.5 349.5t-7.5 166.5h-94q-30 0 -47 -2t-33 -6v72q27 0 79 -1t76 -1
q26 0 76.5 1t73.5 1z" />
    <glyph glyph-name="asciicircum" unicode="^" horiz-adv-x="2048" 
d="M1094 1458l530 -557h-143l-457 455l-459 -455h-143l532 557h140z" />
    <glyph glyph-name="underscore" unicode="_" horiz-adv-x="1024" 
d="M1024 -383v-100h-1024v100h1024z" />
    <glyph glyph-name="grave" unicode="`" horiz-adv-x="1024" 
d="M688 1098h-67l-330 205q-31 20 -46.5 40t-15.5 41q0 32 20.5 52t53.5 20q20 0 40.5 -12t55.5 -47z" />
    <glyph glyph-name="a" unicode="a" horiz-adv-x="985" 
d="M662 508q-268 -45 -345 -95.5t-77 -152.5q0 -93 47.5 -143.5t134.5 -50.5q51 0 107.5 24.5t97.5 65.5q18 18 26.5 36.5t8.5 51.5v10v254zM659 119q-65 -68 -141.5 -102.5t-163.5 -34.5q-135 0 -208.5 65.5t-73.5 185.5q0 109 58.5 174.5t178.5 92.5q51 11 139 27
q181 33 218 67v43q0 141 -54.5 204.5t-173.5 63.5q-84 0 -150 -36.5t-114 -108.5h-16l4 108q67 56 151 85.5t179 29.5q169 0 246 -81.5t77 -262.5v-25l-8 -350v-57q0 -83 19 -109t71 -26q14 0 21.5 0.5t13.5 0.5l8 -40l-6 -2q-104 -31 -162 -31q-50 0 -76.5 27.5t-36.5 91.5
z" />
    <glyph glyph-name="b" unicode="b" 
d="M592 903q-146 0 -222.5 -119t-76.5 -346q0 -189 71.5 -287t208.5 -98q147 0 226.5 119.5t79.5 339.5q0 193 -73 292t-214 99zM148 0q3 81 4.5 183.5t1.5 328.5v301v281q0 202 -1.5 289.5t-5.5 152.5q20 -4 41.5 -6t47.5 -2q24 0 45 2t41 6q-8 -151 -11.5 -283.5
t-3.5 -257.5q0 -31 1 -96.5t1 -99.5q64 96 143.5 141t184.5 45q191 0 302.5 -125t111.5 -340q0 -242 -125 -390t-328 -148q-82 0 -156.5 31t-146.5 96q-26 -20 -53.5 -47.5t-55.5 -61.5h-38z" />
    <glyph glyph-name="c" unicode="c" horiz-adv-x="948" 
d="M901 82q-67 -52 -152.5 -77t-197.5 -25q-216 0 -347.5 137.5t-131.5 363.5q0 228 139 366t369 138q88 0 171 -20.5t162 -61.5q-16 -38 -30 -82t-25 -94q-43 97 -112.5 145t-165.5 48q-163 0 -252.5 -114.5t-89.5 -322.5q0 -199 96.5 -315.5t259.5 -116.5q85 0 160 36
t149 112q0 -4 -1 -12q-3 -45 -3 -64q0 -18 0.5 -26t1.5 -15z" />
    <glyph glyph-name="d" unicode="d" horiz-adv-x="1147" 
d="M547 907q-145 0 -225 -114t-80 -320q0 -196 74 -305t208 -109q149 0 229.5 117.5t80.5 335.5q0 189 -75.5 292t-211.5 103zM832 0q2 46 3 72.5t1 48.5q0 32 -0.5 47.5t-2.5 29.5q-58 -111 -143 -163.5t-207 -52.5q-186 0 -298.5 133t-112.5 352q0 231 121 374.5
t313 143.5q106 0 186.5 -46.5t138.5 -141.5v368q0 97 -1.5 189.5t-4.5 181.5q30 -8 50.5 -11t37.5 -3q18 0 38.5 3t49.5 11q-5 -119 -7.5 -274.5t-2.5 -382.5q0 -221 2.5 -440t7.5 -439q-22 5 -42.5 7.5t-40.5 2.5t-41.5 -2.5t-44.5 -7.5z" />
    <glyph glyph-name="e" unicode="e" horiz-adv-x="1036" 
d="M905 98q-80 -58 -166.5 -87t-181.5 -29q-215 0 -349 138.5t-134 360.5q0 229 128.5 367.5t342.5 138.5q196 0 303.5 -116.5t107.5 -329.5q0 -7 -1 -22t-1 -23h-704v-7q0 -208 88 -317t256 -109q90 0 167 34t148 103q-2 -32 -3 -48.5t-1 -28.5v-25zM254 567h539v35
q0 151 -68 236.5t-188 85.5t-198.5 -98.5t-84.5 -258.5z" />
    <glyph glyph-name="f" unicode="f" horiz-adv-x="565" 
d="M160 0q7 70 10.5 205t3.5 418v256q-60 0 -87.5 -1t-49.5 -3v79h6q56 -4 80 -4q9 0 27.5 1t27.5 2q3 269 110 426t285 157q16 0 25 -0.5t16 -1.5l-20 -160q-26 12 -55.5 18.5t-61.5 6.5q-87 0 -130.5 -47.5t-43.5 -143.5q0 -38 4.5 -106t11.5 -150q16 0 46.5 -1t44.5 -1
q22 0 48.5 1t71.5 3v-80q-41 1 -155 3q-33 1 -51 2q0 -356 3.5 -565t12.5 -313q-24 4 -46.5 6.5t-43.5 2.5q-20 0 -42.5 -2.5t-47.5 -7.5z" />
    <glyph glyph-name="g" unicode="g" horiz-adv-x="936" 
d="M688 662q0 130 -55 200t-158 70t-166 -74.5t-63 -195.5q0 -128 60.5 -199.5t168.5 -71.5q105 0 159 68.5t54 202.5zM357 -4q-88 -28 -134.5 -90t-46.5 -150q0 -115 78 -186.5t205 -71.5q152 0 250 81t98 206q0 122 -75.5 168.5t-311.5 46.5q-9 0 -22.5 -1zM289 371
q-102 32 -153.5 101t-51.5 173q0 158 110 251t298 93q55 0 134 -11t105 -11q24 0 77.5 4t121.5 12l-1 -90q-33 3 -64 4.5t-62 1.5h-41q41 -55 60.5 -111.5t19.5 -121.5q0 -153 -99 -240.5t-272 -87.5q-27 0 -64.5 4t-48.5 4q-44 0 -70 -26t-26 -70q0 -59 37 -85t123 -26h115
q229 0 320 -64t91 -214q0 -189 -144 -306.5t-378 -117.5q-170 0 -270.5 80t-100.5 215q0 103 55.5 170.5t172.5 105.5q-73 17 -114.5 63t-41.5 109q0 57 38 102t124 89z" />
    <glyph glyph-name="h" unicode="h" horiz-adv-x="1118" 
d="M154 0q5 227 7.5 425t2.5 343q0 183 -2.5 373.5t-7.5 394.5l6 -1q54 -7 80 -7q16 0 34.5 1.5t49.5 6.5q-5 -115 -7 -229t-2 -228q0 -84 4 -268v-12q65 97 141 141.5t177 44.5q163 0 245.5 -89.5t82.5 -266.5q0 -40 -3.5 -145t-3.5 -171q0 -53 6 -215q2 -64 2 -98
q-21 5 -42 7.5t-41 2.5t-39.5 -2.5t-44.5 -7.5q5 202 7.5 329.5t2.5 215.5q0 181 -54.5 259.5t-179.5 78.5q-72 0 -128.5 -35t-90.5 -100q-22 -44 -31.5 -119.5t-9.5 -243.5v-145q0 -45 2.5 -106.5t5.5 -133.5q-26 5 -47 7.5t-40 2.5q-20 0 -40 -2.5t-42 -7.5z" />
    <glyph glyph-name="i" unicode="i" horiz-adv-x="508" 
d="M170 0q5 141 7.5 266.5t2.5 241.5q0 106 -2.5 219.5t-7.5 238.5q20 -4 40 -6t44 -2t45 2.5t39 5.5q-5 -128 -7.5 -240.5t-2.5 -217.5q0 -116 2.5 -241.5t7.5 -265.5q-22 4 -43 6.5t-41 2.5q-19 0 -39 -2.5t-45 -7.5zM150 1323q0 43 30.5 72.5t73.5 29.5t73.5 -29.5
t30.5 -72.5t-30.5 -73.5t-73.5 -30.5t-73.5 30.5t-30.5 73.5z" />
    <glyph glyph-name="j" unicode="j" horiz-adv-x="506" 
d="M143 1323q0 43 30 72.5t73 29.5t73.5 -29.5t30.5 -72.5t-30.5 -73.5t-73.5 -30.5t-73 30.5t-30 73.5zM-27 -559l-12 43q124 15 169.5 104.5t45.5 436.5q0 310 -4.5 558.5t-11.5 383.5q19 -4 41 -6.5t47 -2.5q26 0 48.5 2.5t41.5 5.5q-3 -62 -4.5 -118.5t-1.5 -106.5
q0 -165 1 -441t1 -388q0 -246 -80.5 -348.5t-280.5 -122.5z" />
    <glyph glyph-name="k" unicode="k" horiz-adv-x="995" 
d="M158 0q5 198 7.5 389t2.5 379q0 230 -2.5 415.5t-7.5 352.5q35 -5 52.5 -6.5t33.5 -1.5q15 0 32.5 1.5t53.5 6.5q-6 -251 -9.5 -471t-3.5 -412v-69q0 -17 9 -26t26 -9q38 0 162.5 119t265.5 298q23 -2 45 -3.5t45 -1.5t45.5 1.5t44.5 3.5q-43 -29 -103 -80t-163 -149
l-184 -174q67 -79 228 -266.5t253 -296.5q-32 5 -60.5 7.5t-53.5 2.5q-26 0 -52 -2.5t-55 -7.5q-172 233 -289 370.5t-143 137.5q-11 0 -16 -5.5t-5 -23.5v-12v-102q0 -87 3.5 -178.5t8.5 -186.5q-23 5 -44 7.5t-41 2.5t-41 -2.5t-45 -7.5z" />
    <glyph glyph-name="l" unicode="l" horiz-adv-x="477" 
d="M154 0q4 74 6 188t2 410v342v195q0 183 -2 262t-6 139q29 -2 47.5 -3t34.5 -1t35.5 1t52.5 3q-6 -101 -8.5 -227.5t-2.5 -403.5q0 -370 2.5 -578.5t7.5 -326.5q-22 3 -44 4.5t-43 1.5q-22 0 -42.5 -1.5t-39.5 -4.5z" />
    <glyph glyph-name="m" unicode="m" horiz-adv-x="1694" 
d="M160 0q4 44 6 105.5t2 211.5v166v168q0 151 -2 212t-6 104q18 -4 37.5 -6.5t42.5 -2.5q21 0 40.5 2.5t36.5 5.5q-1 -28 -2 -85.5t-2 -85.5q76 99 155 145.5t171 46.5q99 0 173 -55t101 -150q61 103 141.5 154t180.5 51q146 0 228.5 -91t82.5 -253q0 -12 -4 -133.5
t-4 -230.5q0 -63 2 -133t6 -146q-14 3 -32 4.5t-54 1.5q-35 0 -52 -1.5t-31 -4.5q7 131 10.5 260t3.5 307q0 167 -53.5 238.5t-176.5 71.5q-131 0 -184 -108t-53 -413q0 -94 1.5 -183t3.5 -173q-21 3 -41.5 4.5t-41.5 1.5q-22 0 -42 -1.5t-40 -4.5q7 111 10.5 245.5
t3.5 299.5q0 183 -47 257.5t-158 74.5q-57 0 -104.5 -21.5t-79.5 -60.5q-39 -49 -55.5 -132t-16.5 -307q0 -90 3 -179.5t7 -176.5q-21 3 -42 4.5t-41 1.5q-22 0 -42.5 -1.5t-41.5 -4.5z" />
    <glyph glyph-name="n" unicode="n" horiz-adv-x="1120" 
d="M154 0q4 61 6 133.5t2 222.5v146q0 200 -2 293.5t-6 171.5q19 -4 40 -6.5t44 -2.5q24 0 43.5 2t35.5 7v-10q-4 -64 -4 -95q0 -12 1 -36.5t1 -37.5q59 101 138.5 150t183.5 49q163 0 245.5 -92t82.5 -274q0 -51 -2 -150.5t-2 -146.5q0 -77 1.5 -157.5t3.5 -166.5
q-23 5 -44 7.5t-39 2.5q-20 0 -39.5 -2.5t-44.5 -7.5q6 107 9 252.5t3 327.5q0 152 -58.5 227.5t-174.5 75.5q-61 0 -108.5 -22t-82.5 -66q-38 -48 -54 -115t-16 -205v-92q0 -177 2 -252t6 -131q-26 5 -47 7.5t-40 2.5q-20 0 -40 -2.5t-44 -7.5z" />
    <glyph glyph-name="o" unicode="o" horiz-adv-x="1118" 
d="M559 43q152 0 231.5 109.5t79.5 318.5q0 221 -80 337t-233 116q-152 0 -230.5 -112t-78.5 -327q0 -217 79 -329.5t232 -112.5zM559 -18q-214 0 -349.5 139.5t-135.5 361.5q0 220 137 361t348 141q215 0 350 -139.5t135 -362.5t-135.5 -362t-349.5 -139z" />
    <glyph glyph-name="p" unicode="p" horiz-adv-x="1143" 
d="M305 481q0 -209 75 -318.5t218 -109.5q142 0 218.5 113t76.5 321q0 200 -77.5 308t-217.5 108q-138 0 -215.5 -111t-77.5 -311zM158 -559q3 91 4.5 249t1.5 601q0 283 -2.5 421.5t-7.5 253.5q15 -4 33 -6t40 -2q24 0 46 2t44 7q-4 -38 -6 -83t-2 -102q62 106 146.5 156.5
t197.5 50.5q201 0 307.5 -131t106.5 -377q0 -230 -118 -368t-314 -138q-105 0 -183.5 43t-134.5 132v-246q0 -26 5 -228q4 -144 5 -235q-23 5 -44 7.5t-41 2.5t-39.5 -2.5t-44.5 -7.5z" />
    <glyph glyph-name="q" unicode="q" horiz-adv-x="1143" 
d="M834 483q0 197 -78 308.5t-213 111.5q-144 0 -220.5 -106t-76.5 -305q0 -207 77.5 -324t213.5 -117q146 0 221.5 110t75.5 322zM983 -559q-22 5 -43 7.5t-41 2.5q-18 0 -39 -2.5t-47 -7.5q4 164 6 291.5t2 171.5v246q-56 -91 -134.5 -133t-190.5 -42q-200 0 -312 137
t-112 382q0 233 112 364t312 131q109 0 191 -50.5t144 -156.5q0 52 -1.5 98t-4.5 86q21 -4 42.5 -6t45.5 -2q23 0 41 2t33 6q-5 -115 -7.5 -253t-2.5 -422q0 -443 1.5 -600.5t4.5 -249.5z" />
    <glyph glyph-name="r" unicode="r" horiz-adv-x="672" 
d="M152 2q4 100 6 260.5t2 407.5q0 131 -2 190.5t-6 106.5q20 -5 41.5 -7t46.5 -2q24 0 45 2.5t41 6.5q-6 -49 -9.5 -105.5t-3.5 -120.5q57 120 120 178t136 58q12 0 30.5 -2.5t47.5 -8.5q-5 -27 -7.5 -64t-2.5 -91l-16 -10q-26 13 -50 19.5t-49 6.5q-112 0 -163.5 -98
t-51.5 -315q0 -127 2.5 -233t7.5 -181q-19 4 -41 6t-47 2q-20 0 -38.5 -1.5t-38.5 -4.5z" />
    <glyph glyph-name="s" unicode="s" horiz-adv-x="729" 
d="M99 212q50 -77 112.5 -116t136.5 -39q92 0 145.5 50t53.5 137q0 66 -36 104t-126 64l-94 26q-118 33 -169.5 95t-51.5 169q0 126 86.5 204.5t226.5 78.5q72 0 137 -17t118 -50q-14 -32 -25 -64.5t-17 -65.5q-59 69 -118 102.5t-120 33.5q-77 0 -125.5 -48t-48.5 -124
q0 -68 36 -108t120 -64l139 -41q104 -30 150.5 -86t46.5 -150q0 -141 -101.5 -231t-261.5 -90q-78 0 -145.5 18.5t-118.5 54.5q15 39 27.5 79t22.5 78z" />
    <glyph glyph-name="t" unicode="t" horiz-adv-x="592" 
d="M25 881q2 22 3 33.5t1 19.5q0 6 -1 17t-1 15q31 -2 64 -3.5t67 -1.5v67q0 34 -1 72t-3 100q48 8 89 21t74 30q-3 -67 -4.5 -107t-1.5 -54v-136q57 0 123 3t143 10q-2 -15 -4 -32.5t-2 -35.5v-16q-56 3 -102.5 4.5t-85.5 1.5q-32 0 -46.5 -0.5t-26.5 -1.5
q-2 -29 -2.5 -54.5t-0.5 -48.5q0 -58 -5 -216.5t-5 -258.5q0 -141 39.5 -199.5t132.5 -58.5q27 0 62.5 11t80.5 32l15 -45q-51 -34 -108.5 -51.5t-115.5 -17.5q-137 0 -198.5 65t-61.5 215q0 31 5.5 216.5t5.5 340.5v70h-23q-25 0 -51.5 -1.5t-54.5 -4.5z" />
    <glyph glyph-name="u" unicode="u" 
d="M807 -2v37q0 31 -3 110q-1 13 -1 19q-52 -95 -132.5 -141t-195.5 -46q-158 0 -239.5 86t-81.5 252q0 16 5 174.5t5 303.5q0 32 -1 70t-3 103q18 -4 38 -6t44 -2t45.5 2t42.5 7q-16 -145 -23.5 -290.5t-7.5 -287.5q0 -163 58 -239t182 -76q79 0 141.5 39t93.5 108
q20 45 28.5 134t8.5 360q0 64 -2.5 127t-7.5 124q19 -3 40 -5.5t46 -2.5q22 0 42 2.5t38 6.5q-5 -81 -7 -218t-2 -356q0 -142 2 -227t7 -166q-5 0 -29 3t-39 3q-17 0 -35.5 -1.5t-56.5 -6.5z" />
    <glyph glyph-name="v" unicode="v" horiz-adv-x="936" 
d="M408 0q-44 141 -137.5 370.5t-258.5 596.5q22 -5 44 -7t48 -2q27 0 51 2.5t46 6.5q33 -127 108 -320.5t193 -456.5q98 190 174 384.5t129 391.5q16 -4 31.5 -6t33.5 -2t34 2.5t30 6.5q-153 -340 -263.5 -603.5t-142.5 -363.5q-11 2 -24.5 3t-38.5 1t-36.5 -1t-20.5 -3z
" />
    <glyph glyph-name="w" unicode="w" horiz-adv-x="1513" 
d="M373 0q-28 118 -114 351.5t-243 615.5q21 -5 43 -7t47 -2q27 0 49.5 2.5t43.5 6.5q29 -118 94 -308t162 -442q74 165 140.5 351.5t127.5 397.5q25 -4 38 -6t23 -2q11 1 23 2.5t37 5.5q65 -242 132 -436.5t124 -310.5q51 106 125 300.5t159 447.5q9 -1 31 -5t33 -4t32.5 4
t28.5 5q-183 -414 -269.5 -629.5t-119.5 -337.5q-15 3 -30 4.5t-31 1.5t-30 -1.5t-29 -4.5q-10 60 -75.5 251.5t-176.5 487.5q-93 -222 -158.5 -410t-100.5 -329q-13 3 -27.5 4.5t-29.5 1.5t-29.5 -1.5t-29.5 -4.5z" />
    <glyph glyph-name="x" unicode="x" horiz-adv-x="963" 
d="M10 0q59 62 115 128.5t137 172.5l135 176l-96 135l-18 26q-156 215 -250 329q23 -4 49 -6.5t55 -2.5q30 0 55.5 2.5t49.5 5.5q15 -23 33.5 -51t56.5 -84l166 -237l123 158q60 77 96 129t53 86q30 -5 45 -6.5t29 -2.5q13 0 30.5 2t44.5 6q-91 -101 -150 -170t-101 -122
l-121 -150l190 -266q2 -2 10 -13q82 -116 189 -245q-25 4 -51.5 6t-57.5 2q-29 0 -55 -2t-49 -6q-36 60 -84 133t-115 168l-75 105l-146 -183q-45 -58 -81.5 -114t-61.5 -109q-17 4 -35 6t-39 2t-39.5 -2t-36.5 -6z" />
    <glyph glyph-name="y" unicode="y" horiz-adv-x="956" 
d="M154 -559q97 164 210 423q10 23 15 34l47 108l-86 225q-27 71 -116 275.5t-204 460.5q23 -5 47.5 -7t53.5 -2q28 0 52 2.5t46 6.5q27 -93 83 -245.5t136 -348.5l72 -176l74 170q76 173 133 323t97 276q15 -4 31.5 -6t37.5 -2q19 0 35.5 2.5t31.5 6.5
q-39 -77 -84.5 -175.5t-109.5 -246.5l-275 -621q-92 -210 -129.5 -310t-56.5 -173q-18 3 -35 4.5t-35 1.5q-17 0 -35 -1.5t-36 -4.5z" />
    <glyph glyph-name="z" unicode="z" horiz-adv-x="922" 
d="M-4 0v43q236 291 390 490t257 346h-82q-115 0 -229.5 -7.5t-226.5 -21.5q1 8 1 16.5v26.5q0 20 -3 61v11q88 -3 174.5 -5t168.5 -2q109 0 212.5 2t203.5 4v-38q-207 -262 -360.5 -465.5t-271.5 -374.5q195 3 356.5 10.5t265.5 17.5q-3 -18 -3.5 -26.5t-0.5 -17.5
q0 -18 1.5 -35t4.5 -35q-190 5 -288 6.5t-183 1.5q-112 0 -206.5 -2t-180.5 -6z" />
    <glyph glyph-name="braceleft" unicode="{" horiz-adv-x="1024" 
d="M854 1370h-37q-131 0 -177 -49.5t-46 -204.5v-242q0 -168 -43.5 -240t-153.5 -104q110 -31 153.5 -103t43.5 -241v-241q0 -155 45 -204.5t170 -49.5q7 0 22 1t23 1v-107h-47q-197 0 -266.5 72.5t-69.5 296.5v244q0 154 -57 217t-195 63q-7 0 -21.5 -1t-23.5 -1v109
q9 0 23.5 -1t21.5 -1q138 0 195 63t57 217v242q0 223 70 297t266 74h47v-107z" />
    <glyph glyph-name="bar" unicode="|" horiz-adv-x="1024" 
d="M567 1565v-2048h-108v2048h108z" />
    <glyph glyph-name="braceright" unicode="}" horiz-adv-x="1024" 
d="M555 1106v-242q0 -154 57 -217t195 -63q7 0 22 1t23 1v-109q-8 0 -23 1t-22 1q-138 0 -195 -63t-57 -217v-244q0 -223 -69.5 -296t-266.5 -73h-47v107h39q130 0 175.5 49t45.5 203v241q0 171 43 242t154 102q-111 32 -154 103t-43 241v242q0 157 -45 206.5t-170 49.5
q-7 0 -22 -1t-23 -1v107h47q196 0 266 -74t70 -297z" />
    <glyph glyph-name="asciitilde" unicode="~" horiz-adv-x="1706" 
d="M1530 637q-102 -72 -198 -107.5t-189 -35.5q-99 0 -260 57q-20 7 -29 10l-16 6q-176 64 -273 64q-83 0 -175 -38t-212 -122v113q106 73 202 109t185 36q104 0 272 -61q11 -4 18 -7q9 -3 31 -11q167 -60 257 -60q85 0 177 38t210 122v-113z" />
    <glyph glyph-name="euro" 
d="M180 747q-67 -2 -109.5 -4t-54.5 -2l33 90h7q91 -8 130 -8q37 255 180.5 397t362.5 142q89 0 170 -23.5t154 -70.5q-13 -43 -19 -89t-6 -96q-56 111 -129 163t-172 52q-152 0 -252 -126t-121 -349h289q42 0 172 5q55 2 86 3l-35 -90q-78 3 -137 5t-98 2h-279
q0 -14 -2 -40q-2 -45 -2 -57q0 -26 0.5 -40.5t1.5 -28.5h230q64 0 205 7q12 1 18 1l-33 -90q-65 3 -118.5 4.5t-96.5 1.5h-199q18 -220 115.5 -345.5t247.5 -125.5q80 0 158 40t167 128l-10 -125q-70 -55 -154 -83t-180 -28q-216 0 -351.5 140.5t-166.5 398.5
q-43 -2 -84.5 -3.5t-80.5 -2.5l32 90l6 -1q80 -7 121 -7v73q0 20 1 43t3 49z" />
    <glyph glyph-name="euro" unicode="&#x20ac;" 
d="M180 747q-67 -2 -109.5 -4t-54.5 -2l33 90h7q91 -8 130 -8q37 255 180.5 397t362.5 142q89 0 170 -23.5t154 -70.5q-13 -43 -19 -89t-6 -96q-56 111 -129 163t-172 52q-152 0 -252 -126t-121 -349h289q42 0 172 5q55 2 86 3l-35 -90q-78 3 -137 5t-98 2h-279
q0 -14 -2 -40q-2 -45 -2 -57q0 -26 0.5 -40.5t1.5 -28.5h230q64 0 205 7q12 1 18 1l-33 -90q-65 3 -118.5 4.5t-96.5 1.5h-199q18 -220 115.5 -345.5t247.5 -125.5q80 0 158 40t167 128l-10 -125q-70 -55 -154 -83t-180 -28q-216 0 -351.5 140.5t-166.5 398.5
q-43 -2 -84.5 -3.5t-80.5 -2.5l32 90l6 -1q80 -7 121 -7v73q0 20 1 43t3 49z" />
    <glyph glyph-name="nonbreakingspace" unicode="&#xa0;" 
 />
    <glyph glyph-name="exclamdown" unicode="&#xa1;" horiz-adv-x="672" 
d="M354 1065l76 -915q1 -10 1.5 -22.5t0.5 -39.5q0 -52 -24.5 -79t-71.5 -27t-72.5 27.5t-25.5 78.5q0 13 0.5 26.5t3.5 35.5l73 915h39zM449 1311q0 -47 -34 -80t-81 -33t-80 33t-33 80q0 46 33.5 79t79.5 33q48 0 81.5 -32.5t33.5 -79.5z" />
    <glyph glyph-name="cent" unicode="&#xa2;" 
d="M952 102q-65 -50 -143.5 -76t-163.5 -26q0 -39 2 -94.5t6 -120.5l-87 6q2 55 4.5 125.5t2.5 83.5q-211 17 -329.5 149.5t-118.5 352.5q0 213 119.5 345.5t328.5 151.5q0 51 -1.5 102.5t-3.5 102.5h87q0 -8 -1 -24q-7 -122 -9 -178q88 -2 166.5 -21.5t153.5 -58.5
q-18 -39 -31.5 -82.5t-24.5 -91.5q-41 92 -108 140t-155 50l-1 -868h12q75 0 148 37t147 112q0 -15 -1 -40t-1 -36q0 -17 0.5 -25.5t1.5 -15.5zM573 76v860q-136 -20 -210 -133.5t-74 -300.5q0 -175 73.5 -285t210.5 -141z" />
    <glyph glyph-name="sterling" unicode="&#xa3;" 
d="M105 0q3 18 4.5 34t1.5 32t-2 33.5t-4 33.5q170 0 234 71t64 269q0 58 -2 107t-6 94q-45 -2 -96.5 -5.5t-108.5 -8.5v88q30 -5 65.5 -7t82.5 -2h51q-6 69 -9 115t-3 68q0 212 105.5 327t299.5 115q82 0 145 -26.5t109 -80.5l-98 -120q-14 75 -63 117t-123 42
q-112 0 -169 -75.5t-57 -223.5q0 -33 4 -93.5t13 -164.5q11 -1 24 -1.5t39 -0.5q46 0 92.5 3t94.5 10l-1 -84q-70 7 -116 9.5t-88 2.5h-35v-47q0 -174 -48 -292.5t-148 -196.5q182 1 358 6t348 13q-1 -12 -1.5 -28t-0.5 -49q0 -34 0.5 -51.5t0.5 -32.5q-133 6 -255.5 9
t-233.5 3q-112 0 -229 -3t-239 -9z" />
    <glyph glyph-name="currency" unicode="&#xa4;" 
d="M180 747q-67 -2 -109.5 -4t-54.5 -2l33 90h7q91 -8 130 -8q37 255 180.5 397t362.5 142q89 0 170 -23.5t154 -70.5q-13 -43 -19 -89t-6 -96q-56 111 -129 163t-172 52q-152 0 -252 -126t-121 -349h289q42 0 172 5q55 2 86 3l-35 -90q-78 3 -137 5t-98 2h-279
q0 -14 -2 -40q-2 -45 -2 -57q0 -26 0.5 -40.5t1.5 -28.5h230q64 0 205 7q12 1 18 1l-33 -90q-65 3 -118.5 4.5t-96.5 1.5h-199q18 -220 115.5 -345.5t247.5 -125.5q80 0 158 40t167 128l-10 -125q-70 -55 -154 -83t-180 -28q-216 0 -351.5 140.5t-166.5 398.5
q-43 -2 -84.5 -3.5t-80.5 -2.5l32 90l6 -1q80 -7 121 -7v73q0 20 1 43t3 49z" />
    <glyph glyph-name="yen" unicode="&#xa5;" 
d="M625 467q22 -1 48.5 -1.5t80.5 -0.5q63 0 130 2.5t144 7.5v-90q-59 3 -138 4.5t-265 1.5v-67q0 -75 2.5 -154.5t6.5 -169.5q-21 4 -40.5 6t-36.5 2q-16 0 -36.5 -2t-43.5 -6q4 72 6 166t2 225h-106q-79 0 -150 -1.5t-134 -4.5v90q119 -5 187 -6.5t130 -1.5h73v174
q-110 0 -207 -1.5t-183 -4.5v90q118 -5 194.5 -6.5t146.5 -1.5q-28 48 -89 150q-177 299 -279 466q35 -9 57.5 -12.5t38.5 -3.5t36.5 3t57.5 11q61 -146 142.5 -295t183.5 -299q93 150 172 299t143 297l6 -1q53 -9 64 -9q13 0 33 2.5t50 7.5q-102 -152 -199 -306.5
t-187 -309.5q101 0 192.5 2t169.5 6v-90q-16 0 -118.5 1.5t-284.5 4.5v-174z" />
    <glyph glyph-name="brokenbar" unicode="&#xa6;" horiz-adv-x="1024" 
d="M567 408v-758h-108v758h108zM567 1432v-758h-108v758h108z" />
    <glyph glyph-name="section" unicode="&#xa7;" horiz-adv-x="1012" 
d="M741 369q34 49 48 83.5t14 65.5q0 60 -43.5 103.5t-171.5 101.5l-145 67q-4 2 -13 6q-89 38 -141 78q-41 -28 -63.5 -70t-22.5 -89q0 -63 59 -114.5t201 -108.5l129 -54q8 -3 28 -11q78 -32 121 -58zM137 -170q10 39 18 83t15 97q60 -84 136.5 -126t170.5 -42
q116 0 192 67.5t76 168.5q0 73 -45 120t-163 93l-150 57q-158 60 -222.5 126t-64.5 165q0 71 39 139t113 127q-30 36 -44.5 81.5t-14.5 100.5q0 151 98.5 244.5t259.5 93.5q93 0 165 -24t120 -72q-19 -28 -36.5 -59.5t-35.5 -71.5q-37 80 -98.5 122t-141.5 42
q-100 0 -164.5 -61.5t-64.5 -155.5q0 -71 42.5 -117t158.5 -94l157 -66q146 -60 200 -121.5t54 -156.5q0 -65 -30.5 -123.5t-102.5 -128.5q39 -30 59.5 -80t20.5 -117q0 -169 -120 -276t-312 -107q-90 0 -163.5 19t-121.5 53z" />
    <glyph glyph-name="dieresis" unicode="&#xa8;" horiz-adv-x="1024" 
d="M588 1251q0 40 30 70.5t70 30.5t69 -30t29 -71q0 -42 -28 -71t-70 -29t-71 29t-29 71zM238 1251q0 41 29 71t69 30t70 -30.5t30 -70.5q0 -42 -29 -71t-71 -29t-70 29t-28 71z" />
    <glyph glyph-name="copyright" unicode="&#xa9;" horiz-adv-x="1706" 
d="M1073 915q-18 80 -75 124t-142 44q-122 0 -190 -95t-68 -267q0 -166 69 -260t189 -94q89 0 151 50.5t78 137.5h115q-11 -125 -108.5 -205t-241.5 -80q-177 0 -279 122t-102 335q0 203 107.5 326t283.5 123q135 0 226.5 -72t103.5 -189h-117zM1505 723q0 132 -48.5 251
t-139.5 210q-94 94 -213 143t-252 49q-132 0 -249 -48t-208 -140q-94 -96 -144 -215.5t-50 -249.5q0 -129 49.5 -247t142.5 -212q94 -93 212 -142.5t247 -49.5q130 0 250.5 50t216.5 144q91 89 138.5 206t47.5 251zM852 1456q149 0 283.5 -55.5t238.5 -159.5
q102 -102 156.5 -235.5t54.5 -282.5q0 -150 -53.5 -281t-157.5 -233q-107 -106 -242 -162.5t-280 -56.5t-278 55.5t-238 161.5q-105 104 -160 237t-55 279q0 145 56.5 279.5t162.5 242.5q101 103 232 157t280 54z" />
    <glyph glyph-name="ordfeminine" unicode="&#xaa;" horiz-adv-x="739" 
d="M92 578h574v-103h-574v103zM487 1071q-196 -31 -247.5 -63.5t-51.5 -98.5q0 -62 33 -95.5t94 -33.5q68 0 120 35.5t52 87.5v168zM621 1155l-7 -244v-45q0 -51 13 -67.5t49 -16.5q3 0 13.5 1t17.5 1l9 -41q-5 -1 -16 -4q-80 -20 -120 -20t-63.5 18.5t-29.5 55.5
q-49 -44 -104 -65t-117 -21q-105 0 -163 47.5t-58 134.5q0 79 45.5 127.5t136.5 66.5q45 9 119 22q124 20 143 40v26q0 97 -37 139t-122 42q-63 0 -112 -26t-83 -77h-26l4 88q52 42 116.5 63t139.5 21q123 0 188.5 -57t65.5 -166q0 -1 -1 -7q-1 -20 -1 -36z" />
    <glyph glyph-name="guillemotleft" unicode="&#xab;" horiz-adv-x="868" 
d="M829 55l-41 -55l-331 483l331 484l41 -56l-241 -428zM446 55l-43 -55l-329 483l329 484l43 -56l-241 -428z" />
    <glyph glyph-name="logicalnot" unicode="&#xac;" horiz-adv-x="1706" 
d="M1452 858v-502h-96v402h-1102v100h1198z" />
    <glyph glyph-name="sfthyphen" unicode="&#xad;" horiz-adv-x="682" 
d="M90 430v131h502v-131h-502z" />
    <glyph glyph-name="registered" unicode="&#xae;" horiz-adv-x="1706" 
d="M850 1071h-158v-303h158q134 0 188 33.5t54 113.5q0 83 -57 119.5t-185 36.5zM874 1157q178 0 263.5 -57t85.5 -176q0 -89 -54 -149t-145 -73l188 -389h-145l-178 371h-197v-371h-127v844h309zM1505 721q0 134 -48 253t-138 210q-94 93 -213.5 142.5t-253.5 49.5
q-130 0 -246.5 -48t-208.5 -140q-95 -97 -145.5 -216.5t-50.5 -248.5t49.5 -247t142.5 -212q94 -93 212 -142.5t247 -49.5q130 0 250.5 50t216.5 144q91 89 138.5 204.5t47.5 250.5zM852 1456q152 0 285.5 -55t236.5 -160q102 -102 156.5 -235.5t54.5 -282.5
q0 -150 -53.5 -281t-157.5 -233q-107 -106 -242 -162.5t-280 -56.5q-147 0 -279.5 55.5t-236.5 161.5q-105 104 -160 237t-55 279q0 144 56.5 279.5t162.5 242.5q101 103 232 157t280 54z" />
    <glyph glyph-name="macron" unicode="&#xaf;" horiz-adv-x="1024" 
d="M254 1190v125h516v-125h-516z" />
    <glyph glyph-name="degree" unicode="&#xb0;" horiz-adv-x="674" 
d="M545 1174q0 86 -60.5 147t-146.5 61t-147.5 -61t-61.5 -147q0 -87 61 -147t148 -60t147 60t60 147zM338 1452q115 0 195.5 -81.5t80.5 -196.5t-81.5 -197t-196.5 -82q-117 0 -197 81t-80 198q0 116 81.5 197t197.5 81z" />
    <glyph glyph-name="plusminus" unicode="&#xb1;" horiz-adv-x="1706" 
d="M1452 150v-99h-1198v99h1198zM903 1169v-348h549v-98h-549v-348h-98v348h-551v98h551v348h98z" />
    <glyph glyph-name="twosuperior" unicode="&#xb2;" horiz-adv-x="741" 
d="M63 533v20q277 248 355 358.5t78 214.5q0 85 -42.5 133t-115.5 48q-62 0 -105.5 -37t-66.5 -109q-15 23 -28 39.5t-27 30.5q43 58 107 89.5t142 31.5q120 0 187 -58.5t67 -163.5q0 -57 -24 -109.5t-80 -113.5q-24 -24 -125.5 -120t-175.5 -173h133q61 0 129 2.5t153 8.5
q0 -6 -0.5 -14t-0.5 -23q0 -23 1 -34.5t3 -20.5q-49 1 -106.5 1.5t-172.5 0.5q-117 0 -175 -0.5t-110 -1.5z" />
    <glyph glyph-name="threesuperior" unicode="&#xb3;" horiz-adv-x="741" 
d="M84 555q9 26 14 51t7 47q27 -46 78 -72t114 -26q97 0 149 55.5t52 159.5q0 78 -45.5 122t-124.5 44q-19 0 -38 -2t-38 -6q0 4 1 12t1 12t-1 13.5t-1 13.5q4 -1 10.5 -1.5t18.5 -0.5q89 0 133.5 44t44.5 132q0 74 -38 116t-106 42q-51 0 -91 -28.5t-58 -78.5
q-23 31 -34 44.5t-19 23.5q44 40 100 60t123 20q112 0 175.5 -52t63.5 -143q0 -68 -46 -117t-141 -81q112 -4 171 -54t59 -141q0 -113 -90 -182.5t-239 -69.5q-59 0 -111 11t-94 32z" />
    <glyph glyph-name="acute" unicode="&#xb4;" horiz-adv-x="1024" 
d="M336 1098l289 299q35 35 55.5 47t40.5 12q33 0 53.5 -20t20.5 -52q0 -21 -15.5 -41t-46.5 -40l-330 -205h-67z" />
    <glyph glyph-name="mu" unicode="&#xb5;" horiz-adv-x="1110" 
d="M344 1065l-125 -592q-8 -39 -12 -73t-4 -66q0 -117 58 -180.5t167 -63.5q125 0 215 107.5t133 310.5l121 557h139l-164 -770q-12 -55 -17 -85t-5 -48q0 -33 17 -49.5t51 -16.5q7 0 16.5 0.5t19.5 1.5l-20 -110q-19 -5 -41 -8t-45 -3q-70 0 -103.5 36t-33.5 110v14
q-42 -77 -120 -119.5t-179 -42.5q-92 0 -161 40t-108 116l-114 -557h-140l316 1491h139z" />
    <glyph glyph-name="paragraph" unicode="&#xb6;" horiz-adv-x="1024" 
d="M940 1409h-127v-1409h-82v1409h-186v-1409h-84v782q-174 8 -275.5 102.5t-101.5 245.5q0 157 107.5 253t285.5 96h463v-70z" />
    <glyph glyph-name="glyph122" unicode="&#xb7;" horiz-adv-x="561" 
d="M176 680q0 43 31 73.5t74 30.5t73.5 -30.5t30.5 -73.5q0 -44 -30.5 -74.5t-73.5 -30.5q-45 0 -75 30t-30 75z" />
    <glyph glyph-name="cedilla" unicode="&#xb8;" horiz-adv-x="1024" 
d="M244 -375l30 68q66 -28 124 -43t106 -15q62 0 91.5 22.5t29.5 70.5q0 42 -31.5 66t-85.5 24q-12 0 -27 -1.5t-32 -4.5v188h63v-112q15 2 30.5 3.5t30.5 2.5q85 0 134 -43t49 -115q0 -82 -56.5 -128t-156.5 -46q-65 0 -138.5 15.5t-160.5 47.5z" />
    <glyph glyph-name="onesuperior" unicode="&#xb9;" horiz-adv-x="741" 
d="M334 532q6 152 9 290.5t3 267.5q0 78 -1 115t-3 69l-205 -108q-7 15 -17.5 29.5t-25.5 27.5q80 27 172.5 65t198.5 88q-6 -123 -9 -280.5t-3 -350.5q0 -79 1 -124.5t3 -88.5q-11 3 -23.5 4t-38.5 1q-25 0 -37.5 -1t-23.5 -4z" />
    <glyph glyph-name="ordmasculine" unicode="&#xba;" horiz-adv-x="838" 
d="M100 578h637v-103h-637v103zM418 1364q-110 0 -166.5 -76t-56.5 -223q0 -150 56.5 -226.5t168.5 -76.5q110 0 166.5 76.5t56.5 226.5q0 144 -58.5 221.5t-166.5 77.5zM420 1423q165 0 269 -100.5t104 -259.5t-104 -258.5t-269 -99.5t-270 100t-105 258q0 157 106 258.5
t269 101.5z" />
    <glyph glyph-name="guillemotright" unicode="&#xbb;" horiz-adv-x="868" 
d="M420 911l41 56l332 -484l-332 -483l-41 55l242 428zM35 911l43 56l330 -484l-330 -483l-43 55l241 428z" />
    <glyph glyph-name="onequarter" unicode="&#xbc;" horiz-adv-x="1757" 
d="M1180 281h297v376q-33 -31 -108.5 -126.5t-188.5 -249.5zM1467 0q4 43 6 80.5t2 75.5q0 9 -1 27.5t-2 29.5q-33 1 -73 1.5t-117 0.5q-88 0 -130.5 -0.5t-76.5 -1.5v16q84 99 176.5 217t239.5 314q7 0 20.5 -1t20.5 -1q6 0 19.5 1t20.5 1q-2 -41 -3.5 -125t-1.5 -211
q0 -57 0.5 -87t1.5 -56q8 -2 16 -2h25q14 0 29.5 0.5t45.5 3.5l1 -70q-28 0 -98 3q-13 1 -19 1q-1 -33 -1.5 -64t-0.5 -63t1 -51.5t2 -38.5q-8 1 -18 1.5t-32 0.5q-21 0 -32.5 -0.5t-20.5 -1.5zM1290 1522h101l-930 -1712h-94zM317 586q7 139 10 269.5t3 250.5q0 32 -1 69.5
t-3 101.5l-196 -101q-10 18 -20 30.5t-22 22.5q72 24 158.5 59.5t195.5 85.5q-5 -100 -7.5 -238.5t-2.5 -351.5q0 -74 0.5 -116t1.5 -82q-10 2 -22 3t-35 1q-25 0 -37 -1t-23 -3z" />
    <glyph glyph-name="onehalf" unicode="&#xbd;" horiz-adv-x="1757" 
d="M1113 0l-1 20q258 224 335 329.5t77 203.5q0 79 -40 124.5t-110 45.5q-59 0 -100.5 -34t-65.5 -101q-14 20 -26.5 35.5t-24.5 27.5q41 55 102 84t136 29q114 0 178.5 -55t64.5 -152q0 -53 -23.5 -101.5t-76.5 -105.5q-28 -28 -125.5 -118t-162.5 -154q24 -1 50.5 -1.5
t75.5 -0.5q60 0 126.5 2.5t143.5 7.5q0 -6 -0.5 -13t-0.5 -22q0 -21 0.5 -31.5t2.5 -19.5q-45 1 -100.5 1.5t-165.5 0.5q-111 0 -167 -0.5t-102 -1.5zM1290 1522h101l-930 -1712h-94zM317 586q7 139 10 269.5t3 250.5q0 32 -1 69.5t-3 101.5l-196 -101q-10 18 -20 30.5
t-22 22.5q72 24 158.5 59.5t195.5 85.5q-5 -100 -7.5 -238.5t-2.5 -351.5q0 -74 0.5 -116t1.5 -82q-10 2 -22 3t-35 1q-25 0 -37 -1t-23 -3z" />
    <glyph glyph-name="threequarters" unicode="&#xbe;" horiz-adv-x="1759" 
d="M1180 281h297v376q-33 -31 -108.5 -126.5t-188.5 -249.5zM1467 0q4 43 6 80.5t2 75.5q0 9 -1 27.5t-2 29.5q-33 1 -73 1.5t-117 0.5q-88 0 -130.5 -0.5t-76.5 -1.5v16q84 99 176.5 217t239.5 314q7 0 20.5 -1t20.5 -1q6 0 19.5 1t20.5 1q-2 -41 -3.5 -125t-1.5 -211
q0 -57 0.5 -87t1.5 -56q8 -2 16 -2h25q14 0 29.5 0.5t45.5 3.5l1 -70q-28 0 -98 3q-13 1 -19 1q-1 -33 -1.5 -64t-0.5 -63t1 -51.5t2 -38.5q-8 1 -18 1.5t-32 0.5q-21 0 -32.5 -0.5t-20.5 -1.5zM1290 1522h101l-930 -1712h-94zM80 606q7 21 12 44t8 48q26 -42 74.5 -66
t108.5 -24q93 0 142.5 51t49.5 148q0 72 -43.5 114t-118.5 42q-17 0 -35.5 -2.5t-37.5 -5.5q1 4 1.5 9t0.5 15q0 8 -0.5 13t-1.5 9h28q85 0 127.5 41t42.5 123q0 69 -36.5 108.5t-100.5 39.5q-48 0 -86.5 -27t-56.5 -74q-16 24 -49 61l-2 2q41 38 94.5 56.5t117.5 18.5
q107 0 168.5 -48.5t61.5 -132.5q0 -63 -44.5 -109t-135.5 -77q108 -3 165.5 -49.5t57.5 -132.5q0 -105 -87 -169.5t-229 -64.5q-57 0 -106.5 10t-89.5 29z" />
    <glyph glyph-name="questiondown" unicode="&#xbf;" horiz-adv-x="788" 
d="M283 973l16 59q17 5 34 7.5t36 2.5q106 0 169.5 -65.5t63.5 -175.5q0 -62 -28 -118t-99 -130l-135 -141q-52 -54 -72 -97.5t-20 -95.5q0 -81 46.5 -128.5t125.5 -47.5q69 0 119.5 32.5t78.5 96.5l23 -125q-62 -37 -121.5 -55.5t-120.5 -18.5q-134 0 -213.5 79.5
t-79.5 213.5q0 68 31.5 133.5t95.5 135.5l115 120q77 82 101 124.5t24 84.5q0 54 -32 86.5t-85 32.5q-19 0 -37 -2.5t-36 -7.5zM516 1311q0 -47 -32.5 -80t-80.5 -33q-47 0 -80.5 33t-33.5 80q0 46 34 80t80 34q48 0 80.5 -33t32.5 -81z" />
    <glyph glyph-name="Agrave" unicode="&#xc0;" horiz-adv-x="1268" 
d="M373 637q11 0 63 -1t92 -1q31 0 123 1t152 1l-35 90q-8 22 -42.5 104.5t-133.5 313.5zM-8 0q192 420 346 767t287 658h39q143 -359 291.5 -715t301.5 -709q-27 4 -51.5 6.5t-48.5 2.5t-49.5 -2.5t-54.5 -7.5q-36 112 -80 228.5t-94 236.5l-35 82q-45 2 -96.5 3t-155.5 1
q-106 0 -158 -1t-96 -3q-49 -113 -99.5 -243.5t-111.5 -303.5q-17 5 -34 7.5t-34 2.5q-15 0 -32 -2.5t-35 -7.5zM811 1536h-67l-330 205q-31 20 -46.5 40t-15.5 41q0 32 20.5 52t53.5 20q20 0 40.5 -12t55.5 -47z" />
    <glyph glyph-name="Aacute" unicode="&#xc1;" horiz-adv-x="1268" 
d="M373 637q11 0 63 -1t92 -1q31 0 123 1t152 1l-35 90q-8 22 -42.5 104.5t-133.5 313.5zM-8 0q192 420 346 767t287 658h39q143 -359 291.5 -715t301.5 -709q-27 4 -51.5 6.5t-48.5 2.5t-49.5 -2.5t-54.5 -7.5q-36 112 -80 228.5t-94 236.5l-35 82q-45 2 -96.5 3t-155.5 1
q-106 0 -158 -1t-96 -3q-49 -113 -99.5 -243.5t-111.5 -303.5q-17 5 -34 7.5t-34 2.5q-15 0 -32 -2.5t-35 -7.5zM459 1536l289 299q35 35 55.5 47t40.5 12q33 0 53.5 -20t20.5 -52q0 -21 -15.5 -41t-46.5 -40l-330 -205h-67z" />
    <glyph glyph-name="Acircumflex" unicode="&#xc2;" horiz-adv-x="1268" 
d="M373 637q11 0 63 -1t92 -1q31 0 123 1t152 1l-35 90q-8 22 -42.5 104.5t-133.5 313.5zM-8 0q192 420 346 767t287 658h39q143 -359 291.5 -715t301.5 -709q-27 4 -51.5 6.5t-48.5 2.5t-49.5 -2.5t-54.5 -7.5q-36 112 -80 228.5t-94 236.5l-35 82q-45 2 -96.5 3t-155.5 1
q-106 0 -158 -1t-96 -3q-49 -113 -99.5 -243.5t-111.5 -303.5q-17 5 -34 7.5t-34 2.5q-15 0 -32 -2.5t-35 -7.5zM344 1536l232 348h118l232 -348h-58l-233 209l-233 -209h-58z" />
    <glyph glyph-name="Atilde" unicode="&#xc3;" horiz-adv-x="1268" 
d="M373 637q11 0 63 -1t92 -1q31 0 123 1t152 1l-35 90q-8 22 -42.5 104.5t-133.5 313.5zM-8 0q192 420 346 767t287 658h39q143 -359 291.5 -715t301.5 -709q-27 4 -51.5 6.5t-48.5 2.5t-49.5 -2.5t-54.5 -7.5q-36 112 -80 228.5t-94 236.5l-35 82q-45 2 -96.5 3t-155.5 1
q-106 0 -158 -1t-96 -3q-49 -113 -99.5 -243.5t-111.5 -303.5q-17 5 -34 7.5t-34 2.5q-15 0 -32 -2.5t-35 -7.5zM922 1835q-20 -105 -68.5 -157t-126.5 -52q-21 0 -68 11q-4 1 -6 1l-109 29q-12 3 -24 4.5t-24 1.5q-39 0 -60.5 -19.5t-36.5 -68.5h-51q19 104 68 156.5
t129 52.5q17 0 32.5 -2t30.5 -6l111 -29q23 -6 35 -8t20 -2q36 0 58 20.5t36 67.5h54z" />
    <glyph glyph-name="Adieresis" unicode="&#xc4;" horiz-adv-x="1268" 
d="M373 637q11 0 63 -1t92 -1q31 0 123 1t152 1l-35 90q-8 22 -42.5 104.5t-133.5 313.5zM-8 0q192 420 346 767t287 658h39q143 -359 291.5 -715t301.5 -709q-27 4 -51.5 6.5t-48.5 2.5t-49.5 -2.5t-54.5 -7.5q-36 112 -80 228.5t-94 236.5l-35 82q-45 2 -96.5 3t-155.5 1
q-106 0 -158 -1t-96 -3q-49 -113 -99.5 -243.5t-111.5 -303.5q-17 5 -34 7.5t-34 2.5q-15 0 -32 -2.5t-35 -7.5zM711 1689q0 40 30 70.5t70 30.5t69 -30t29 -71q0 -42 -28 -71t-70 -29t-71 29t-29 71zM361 1689q0 41 29 71t69 30t70 -30.5t30 -70.5q0 -42 -29 -71t-71 -29
t-70 29t-28 71z" />
    <glyph glyph-name="Aring" unicode="&#xc5;" horiz-adv-x="1268" 
d="M643 1491q-103 0 -170 65.5t-67 165.5q0 106 72 178t177 72q108 0 174 -63.5t66 -167.5q0 -107 -72.5 -178.5t-179.5 -71.5zM655 1913q-72 0 -115.5 -52t-43.5 -139q0 -80 39.5 -124t111.5 -44q73 0 114.5 50.5t41.5 138.5q0 78 -40 124t-108 46zM373 637q11 0 63 -1
t92 -1q31 0 123 1t152 1l-35 90q-8 22 -42.5 104.5t-133.5 313.5zM-8 0q192 420 346 767t287 658h39q143 -359 291.5 -715t301.5 -709q-27 4 -51.5 6.5t-48.5 2.5t-49.5 -2.5t-54.5 -7.5q-36 112 -80 228.5t-94 236.5l-35 82q-45 2 -96.5 3t-155.5 1q-106 0 -158 -1t-96 -3
q-49 -113 -99.5 -243.5t-111.5 -303.5q-17 5 -34 7.5t-34 2.5q-15 0 -32 -2.5t-35 -7.5z" />
    <glyph glyph-name="AE" unicode="&#xc6;" horiz-adv-x="1602" 
d="M836 0q8 109 12 239.5t4 278.5q-37 2 -83.5 3t-141.5 1q-98 0 -149 -1t-95 -3l-45 -69q-101 -159 -159.5 -269t-80.5 -180h-157q276 425 808 1268l82 130q54 -2 118.5 -3.5t140.5 -1.5q72 0 178 1.5t247 4.5q1 -9 -0.5 -29t-1.5 -31q0 -9 1.5 -29t1.5 -30
q-110 10 -224 15t-231 5h-43q-3 -186 -4.5 -293.5t-1.5 -138.5v-82h35q86 0 192.5 4.5t224.5 12.5q-1 -10 -1.5 -21.5t-0.5 -36.5t0.5 -38t1.5 -25q-46 9 -114 12.5t-248 3.5h-90v-98q0 -104 3 -385q0 -74 1 -115h47q83 0 202 6t261 17q0 -10 -1 -30.5t-1 -31.5
q0 -10 1 -30.5t0 -30.5q-142 3 -243 4.5t-158 1.5q-78 0 -150.5 -1.5t-137.5 -4.5zM439 608q80 -2 124 -3t80 -1t79.5 1t129.5 4v659q-193 -289 -283 -432.5t-130 -227.5z" />
    <glyph glyph-name="Ccedilla" unicode="&#xc7;" horiz-adv-x="1343" 
d="M1257 88q-77 -57 -192.5 -86t-265.5 -29q-341 0 -528 190t-187 535q0 332 206.5 529.5t553.5 197.5q121 0 232 -24.5t208 -73.5q-16 -53 -24.5 -101.5t-8.5 -95.5q-73 114 -173 167t-240 53q-258 0 -400.5 -171.5t-142.5 -482.5q0 -300 141.5 -472.5t386.5 -172.5
q115 0 229 44t218 128zM514 -375l30 68q66 -28 124 -43t106 -15q62 0 91.5 22.5t29.5 70.5q0 42 -31.5 66t-85.5 24q-12 0 -27 -1.5t-32 -4.5v188h63v-112q15 2 30.5 3.5t30.5 2.5q85 0 134 -43t49 -115q0 -82 -56.5 -128t-156.5 -46q-65 0 -138.5 15.5t-160.5 47.5z" />
    <glyph glyph-name="Egrave" unicode="&#xc8;" horiz-adv-x="1014" 
d="M182 0q9 129 13 301.5t4 413.5q0 222 -4 388t-13 296q43 -2 93.5 -3t158.5 -1q140 0 248.5 1t220.5 3q0 -9 -1 -29t-1 -31q0 -9 1 -29t1 -30q-116 10 -238 15t-247 5h-49q-1 -119 -1.5 -227t-0.5 -205v-82h36q93 0 205.5 4.5t239.5 11.5q-2 -22 -3 -36t-1 -27
q0 -11 1 -24t3 -33q-49 9 -122.5 12.5t-264.5 3.5h-94v-98q0 -175 0.5 -284.5t1.5 -215.5h51q88 0 215 6t276 17q0 -10 -1 -30.5t-1 -31.5q0 -10 1 -30.5t1 -30.5q-58 2 -129.5 3t-220.5 1q-152 0 -231 -1t-148 -3zM719 1536h-67l-330 205q-31 20 -46.5 40t-15.5 41
q0 32 20.5 52t53.5 20q20 0 40.5 -12t55.5 -47z" />
    <glyph glyph-name="Eacute" unicode="&#xc9;" horiz-adv-x="1014" 
d="M182 0q9 129 13 301.5t4 413.5q0 222 -4 388t-13 296q43 -2 93.5 -3t158.5 -1q140 0 248.5 1t220.5 3q0 -9 -1 -29t-1 -31q0 -9 1 -29t1 -30q-116 10 -238 15t-247 5h-49q-1 -119 -1.5 -227t-0.5 -205v-82h36q93 0 205.5 4.5t239.5 11.5q-2 -22 -3 -36t-1 -27
q0 -11 1 -24t3 -33q-49 9 -122.5 12.5t-264.5 3.5h-94v-98q0 -175 0.5 -284.5t1.5 -215.5h51q88 0 215 6t276 17q0 -10 -1 -30.5t-1 -31.5q0 -10 1 -30.5t1 -30.5q-58 2 -129.5 3t-220.5 1q-152 0 -231 -1t-148 -3zM367 1536l289 299q35 35 55.5 47t40.5 12q33 0 53.5 -20
t20.5 -52q0 -21 -15.5 -41t-46.5 -40l-330 -205h-67z" />
    <glyph glyph-name="Ecircumflex" unicode="&#xca;" horiz-adv-x="1014" 
d="M182 0q9 129 13 301.5t4 413.5q0 222 -4 388t-13 296q43 -2 93.5 -3t158.5 -1q140 0 248.5 1t220.5 3q0 -9 -1 -29t-1 -31q0 -9 1 -29t1 -30q-116 10 -238 15t-247 5h-49q-1 -119 -1.5 -227t-0.5 -205v-82h36q93 0 205.5 4.5t239.5 11.5q-2 -22 -3 -36t-1 -27
q0 -11 1 -24t3 -33q-49 9 -122.5 12.5t-264.5 3.5h-94v-98q0 -175 0.5 -284.5t1.5 -215.5h51q88 0 215 6t276 17q0 -10 -1 -30.5t-1 -31.5q0 -10 1 -30.5t1 -30.5q-58 2 -129.5 3t-220.5 1q-152 0 -231 -1t-148 -3zM252 1536l232 348h118l232 -348h-58l-233 209l-233 -209
h-58z" />
    <glyph glyph-name="Edieresis" unicode="&#xcb;" horiz-adv-x="1014" 
d="M182 0q9 129 13 301.5t4 413.5q0 222 -4 388t-13 296q43 -2 93.5 -3t158.5 -1q140 0 248.5 1t220.5 3q0 -9 -1 -29t-1 -31q0 -9 1 -29t1 -30q-116 10 -238 15t-247 5h-49q-1 -119 -1.5 -227t-0.5 -205v-82h36q93 0 205.5 4.5t239.5 11.5q-2 -22 -3 -36t-1 -27
q0 -11 1 -24t3 -33q-49 9 -122.5 12.5t-264.5 3.5h-94v-98q0 -175 0.5 -284.5t1.5 -215.5h51q88 0 215 6t276 17q0 -10 -1 -30.5t-1 -31.5q0 -10 1 -30.5t1 -30.5q-58 2 -129.5 3t-220.5 1q-152 0 -231 -1t-148 -3zM619 1689q0 40 30 70.5t70 30.5t69 -30t29 -71
q0 -42 -28 -71t-70 -29t-71 29t-29 71zM269 1689q0 41 29 71t69 30t70 -30.5t30 -70.5q0 -42 -29 -71t-71 -29t-70 29t-28 71z" />
    <glyph glyph-name="Igrave" unicode="&#xcc;" horiz-adv-x="563" 
d="M188 0q7 100 10 222.5t3 305.5v170q0 327 -3 463.5t-10 237.5q21 -4 43.5 -6t49.5 -2t50.5 2t47.5 6q-7 -69 -9.5 -161t-2.5 -241v-299v-338q0 -162 2.5 -233.5t9.5 -126.5q-22 4 -45 6t-49 2q-27 0 -51 -2t-46 -6zM459 1536h-67l-330 205q-31 20 -46.5 40t-15.5 41
q0 32 20.5 52t53.5 20q20 0 40.5 -12t55.5 -47z" />
    <glyph glyph-name="Iacute" unicode="&#xcd;" horiz-adv-x="563" 
d="M188 0q7 100 10 222.5t3 305.5v170q0 327 -3 463.5t-10 237.5q21 -4 43.5 -6t49.5 -2t50.5 2t47.5 6q-7 -69 -9.5 -161t-2.5 -241v-299v-338q0 -162 2.5 -233.5t9.5 -126.5q-22 4 -45 6t-49 2q-27 0 -51 -2t-46 -6zM107 1536l289 299q35 35 55.5 47t40.5 12
q33 0 53.5 -20t20.5 -52q0 -21 -15.5 -41t-46.5 -40l-330 -205h-67z" />
    <glyph glyph-name="Icircumflex" unicode="&#xce;" horiz-adv-x="563" 
d="M188 0q7 100 10 222.5t3 305.5v170q0 327 -3 463.5t-10 237.5q21 -4 43.5 -6t49.5 -2t50.5 2t47.5 6q-7 -69 -9.5 -161t-2.5 -241v-299v-338q0 -162 2.5 -233.5t9.5 -126.5q-22 4 -45 6t-49 2q-27 0 -51 -2t-46 -6zM-8 1536l232 348h118l232 -348h-58l-233 209l-233 -209
h-58z" />
    <glyph glyph-name="Idieresis" unicode="&#xcf;" horiz-adv-x="563" 
d="M188 0q7 100 10 222.5t3 305.5v170q0 327 -3 463.5t-10 237.5q21 -4 43.5 -6t49.5 -2t50.5 2t47.5 6q-7 -69 -9.5 -161t-2.5 -241v-299v-338q0 -162 2.5 -233.5t9.5 -126.5q-22 4 -45 6t-49 2q-27 0 -51 -2t-46 -6zM359 1689q0 40 30 70.5t70 30.5t69 -30t29 -71
q0 -42 -28 -71t-70 -29t-71 29t-29 71zM9 1689q0 41 29 71t69 30t70 -30.5t30 -70.5q0 -42 -29 -71t-71 -29t-70 29t-28 71z" />
    <glyph glyph-name="Eth" unicode="&#xd0;" horiz-adv-x="1550" 
d="M371 88q66 -5 118.5 -7.5t96.5 -2.5q339 0 505 154.5t166 469.5q0 329 -136 475t-443 146q-84 0 -159 -2.5t-148 -7.5q-1 -39 -2 -124q-4 -242 -6 -394h118q87 0 157.5 1.5t125.5 3.5v-91q-16 0 -56 1q-195 7 -346 7q0 -136 2 -282t7 -347zM187 0q4 140 7 285t3 295v137
q-46 0 -94 -2t-103 -6v91q25 -2 60 -3.5t77 -1.5h60q0 182 -2.5 328t-7.5 276q47 -2 84 -3t71 -1q41 0 172.5 5t222.5 5q175 0 278.5 -23t180.5 -75q128 -86 195 -231t67 -335q0 -364 -206 -554.5t-601 -190.5q-47 0 -147 4t-152 4q-16 0 -74 -1.5t-91 -2.5z" />
    <glyph glyph-name="Ntilde" unicode="&#xd1;" horiz-adv-x="1528" 
d="M168 1q13 276 20 577.5t7 629.5v217h38q220 -254 460 -511.5t546 -565.5q0 10 1 31q3 105 3 149q0 247 -4 469.5t-12 400.5q27 -4 40.5 -5.5t24.5 -1.5q12 0 26 1.5t38 5.5q-8 -234 -12.5 -472.5t-4.5 -487.5q0 -90 1 -193t3 -272h-26q-94 117 -222.5 260.5t-301.5 325.5
l-496 522q-1 -23 -3.5 -117t-2.5 -151q0 -125 4 -319.5t12 -493.5q-18 5 -35.5 7.5t-33.5 2.5t-32.5 -2.5t-37.5 -6.5zM1051 1835q-20 -105 -68.5 -157t-126.5 -52q-21 0 -68 11q-4 1 -6 1l-109 29q-12 3 -24 4.5t-24 1.5q-39 0 -60.5 -19.5t-36.5 -68.5h-51
q19 104 68 156.5t129 52.5q17 0 32.5 -2t30.5 -6l111 -29q23 -6 35 -8t20 -2q36 0 58 20.5t36 67.5h54z" />
    <glyph glyph-name="Ograve" unicode="&#xd2;" horiz-adv-x="1679" 
d="M840 49q264 0 406.5 168.5t142.5 480.5q0 318 -140 483t-409 165q-265 0 -408 -171t-143 -485q0 -310 142.5 -475.5t408.5 -165.5zM840 -29q-351 0 -553.5 194.5t-202.5 530.5q0 331 206 529t550 198q348 0 550.5 -196t202.5 -531q0 -325 -207 -525t-546 -200zM1016 1536
h-67l-330 205q-31 20 -46.5 40t-15.5 41q0 32 20.5 52t53.5 20q20 0 40.5 -12t55.5 -47z" />
    <glyph glyph-name="Oacute" unicode="&#xd3;" horiz-adv-x="1679" 
d="M840 49q264 0 406.5 168.5t142.5 480.5q0 318 -140 483t-409 165q-265 0 -408 -171t-143 -485q0 -310 142.5 -475.5t408.5 -165.5zM840 -29q-351 0 -553.5 194.5t-202.5 530.5q0 331 206 529t550 198q348 0 550.5 -196t202.5 -531q0 -325 -207 -525t-546 -200zM664 1536
l289 299q35 35 55.5 47t40.5 12q33 0 53.5 -20t20.5 -52q0 -21 -15.5 -41t-46.5 -40l-330 -205h-67z" />
    <glyph glyph-name="Ocircumflex" unicode="&#xd4;" horiz-adv-x="1679" 
d="M840 49q264 0 406.5 168.5t142.5 480.5q0 318 -140 483t-409 165q-265 0 -408 -171t-143 -485q0 -310 142.5 -475.5t408.5 -165.5zM840 -29q-351 0 -553.5 194.5t-202.5 530.5q0 331 206 529t550 198q348 0 550.5 -196t202.5 -531q0 -325 -207 -525t-546 -200zM549 1536
l232 348h118l232 -348h-58l-233 209l-233 -209h-58z" />
    <glyph glyph-name="Otilde" unicode="&#xd5;" horiz-adv-x="1679" 
d="M840 49q264 0 406.5 168.5t142.5 480.5q0 318 -140 483t-409 165q-265 0 -408 -171t-143 -485q0 -310 142.5 -475.5t408.5 -165.5zM840 -29q-351 0 -553.5 194.5t-202.5 530.5q0 331 206 529t550 198q348 0 550.5 -196t202.5 -531q0 -325 -207 -525t-546 -200zM1127 1835
q-20 -105 -68.5 -157t-126.5 -52q-21 0 -68 11q-4 1 -6 1l-109 29q-12 3 -24 4.5t-24 1.5q-39 0 -60.5 -19.5t-36.5 -68.5h-51q19 104 68 156.5t129 52.5q17 0 32.5 -2t30.5 -6l111 -29q23 -6 35 -8t20 -2q36 0 58 20.5t36 67.5h54z" />
    <glyph glyph-name="Odieresis" unicode="&#xd6;" horiz-adv-x="1679" 
d="M840 49q264 0 406.5 168.5t142.5 480.5q0 318 -140 483t-409 165q-265 0 -408 -171t-143 -485q0 -310 142.5 -475.5t408.5 -165.5zM840 -29q-351 0 -553.5 194.5t-202.5 530.5q0 331 206 529t550 198q348 0 550.5 -196t202.5 -531q0 -325 -207 -525t-546 -200zM916 1689
q0 40 30 70.5t70 30.5t69 -30t29 -71q0 -42 -28 -71t-70 -29t-71 29t-29 71zM566 1689q0 41 29 71t69 30t70 -30.5t30 -70.5q0 -42 -29 -71t-71 -29t-70 29t-28 71z" />
    <glyph glyph-name="multiply" unicode="&#xd7;" horiz-adv-x="1706" 
d="M856 680l481 481l70 -69l-481 -482l481 -481l-70 -70l-481 482l-481 -482l-70 70l481 481l-481 482l70 69z" />
    <glyph glyph-name="Oslash" unicode="&#xd8;" horiz-adv-x="1679" 
d="M1276 1139l-840 -934q72 -81 168.5 -118.5t233.5 -37.5q264 0 407.5 168.5t143.5 480.5q0 136 -29 248t-84 193zM391 266l836 936q-68 74 -162 109t-227 35q-266 0 -407.5 -171.5t-141.5 -492.5q0 -125 25 -227t77 -189zM293 162q-108 108 -158.5 237t-50.5 297
q0 332 205.5 529.5t548.5 197.5q140 0 253.5 -31t206.5 -96q47 49 91 101t86 108q17 -22 37 -38.5t46 -30.5q-39 -38 -83.5 -86.5t-98.5 -112.5q108 -99 162.5 -234.5t54.5 -306.5q0 -330 -209.5 -527.5t-564.5 -197.5q-138 0 -251 33t-210 100q-56 -58 -105 -116.5
t-91 -118.5q-13 23 -32.5 42t-43.5 32q50 51 101 105t106 114z" />
    <glyph glyph-name="Ugrave" unicode="&#xd9;" horiz-adv-x="1536" 
d="M186 1399q21 -4 43 -6t47 -2q30 0 53 2.5t44 6.5q-4 -262 -6 -468t-2 -277q0 -189 23.5 -285.5t78.5 -162.5q56 -68 142 -103.5t194 -35.5q107 0 195 37t143 106t77.5 176t22.5 371q0 175 -2 333.5t-6 307.5q15 -4 30.5 -6t32.5 -2q20 0 36.5 2t31.5 5q-5 -122 -7.5 -224
t-2.5 -148v-53q0 -391 -19 -533t-65 -223q-71 -121 -196.5 -182.5t-303.5 -61.5q-304 0 -444 147.5t-140 469.5q0 12 4.5 153t4.5 269q0 96 -7 331q-1 37 -2 56zM964 1536h-67l-330 205q-31 20 -46.5 40t-15.5 41q0 32 20.5 52t53.5 20q20 0 40.5 -12t55.5 -47z" />
    <glyph glyph-name="Uacute" unicode="&#xda;" horiz-adv-x="1536" 
d="M186 1399q21 -4 43 -6t47 -2q30 0 53 2.5t44 6.5q-4 -262 -6 -468t-2 -277q0 -189 23.5 -285.5t78.5 -162.5q56 -68 142 -103.5t194 -35.5q107 0 195 37t143 106t77.5 176t22.5 371q0 175 -2 333.5t-6 307.5q15 -4 30.5 -6t32.5 -2q20 0 36.5 2t31.5 5q-5 -122 -7.5 -224
t-2.5 -148v-53q0 -391 -19 -533t-65 -223q-71 -121 -196.5 -182.5t-303.5 -61.5q-304 0 -444 147.5t-140 469.5q0 12 4.5 153t4.5 269q0 96 -7 331q-1 37 -2 56zM612 1536l289 299q35 35 55.5 47t40.5 12q33 0 53.5 -20t20.5 -52q0 -21 -15.5 -41t-46.5 -40l-330 -205h-67z
" />
    <glyph glyph-name="Ucircumflex" unicode="&#xdb;" horiz-adv-x="1536" 
d="M186 1399q21 -4 43 -6t47 -2q30 0 53 2.5t44 6.5q-4 -262 -6 -468t-2 -277q0 -189 23.5 -285.5t78.5 -162.5q56 -68 142 -103.5t194 -35.5q107 0 195 37t143 106t77.5 176t22.5 371q0 175 -2 333.5t-6 307.5q15 -4 30.5 -6t32.5 -2q20 0 36.5 2t31.5 5q-5 -122 -7.5 -224
t-2.5 -148v-53q0 -391 -19 -533t-65 -223q-71 -121 -196.5 -182.5t-303.5 -61.5q-304 0 -444 147.5t-140 469.5q0 12 4.5 153t4.5 269q0 96 -7 331q-1 37 -2 56zM497 1536l232 348h118l232 -348h-58l-233 209l-233 -209h-58z" />
    <glyph glyph-name="Udieresis" unicode="&#xdc;" horiz-adv-x="1536" 
d="M186 1399q21 -4 43 -6t47 -2q30 0 53 2.5t44 6.5q-4 -262 -6 -468t-2 -277q0 -189 23.5 -285.5t78.5 -162.5q56 -68 142 -103.5t194 -35.5q107 0 195 37t143 106t77.5 176t22.5 371q0 175 -2 333.5t-6 307.5q15 -4 30.5 -6t32.5 -2q20 0 36.5 2t31.5 5q-5 -122 -7.5 -224
t-2.5 -148v-53q0 -391 -19 -533t-65 -223q-71 -121 -196.5 -182.5t-303.5 -61.5q-304 0 -444 147.5t-140 469.5q0 12 4.5 153t4.5 269q0 96 -7 331q-1 37 -2 56zM864 1689q0 40 30 70.5t70 30.5t69 -30t29 -71q0 -42 -28 -71t-70 -29t-71 29t-29 71zM514 1689q0 41 29 71
t69 30t70 -30.5t30 -70.5q0 -42 -29 -71t-71 -29t-70 29t-28 71z" />
    <glyph glyph-name="Yacute" unicode="&#xdd;" horiz-adv-x="1098" 
d="M467 0q5 86 7.5 157t2.5 136q0 64 -2.5 133.5t-7.5 146.5q-144 249 -262.5 450.5t-222.5 375.5q25 -4 52.5 -6t59.5 -2t60 2t53 6q81 -184 176.5 -357.5t206.5 -336.5q106 172 198 345.5t170 348.5q19 -4 37.5 -6t38.5 -2q22 0 40.5 2t35.5 6q-129 -210 -245 -407.5
t-220 -385.5q-2 -88 -3 -133t-1 -84q0 -87 2.5 -183.5t7.5 -205.5q-23 5 -45.5 7.5t-44.5 2.5t-45 -2.5t-49 -7.5zM373 1536l289 299q35 35 55.5 47t40.5 12q33 0 53.5 -20t20.5 -52q0 -21 -15.5 -41t-46.5 -40l-330 -205h-67z" />
    <glyph glyph-name="Thorn" unicode="&#xde;" horiz-adv-x="1143" 
d="M356 508q29 -2 50.5 -3t42.5 -1q219 0 329.5 80t110.5 239t-92 229t-303 70q-38 0 -117 -7q-7 -1 -10 -1q-6 -107 -8.5 -211.5t-2.5 -210.5v-184zM181 0q5 168 8.5 342t3.5 356q0 196 -3.5 366t-9.5 335l7 -1q58 -3 87 -3q17 0 36.5 0.5t59.5 3.5q-1 -44 -2 -90t-1 -121
q71 6 134.5 9t121.5 3q219 0 338.5 -93.5t119.5 -264.5q0 -203 -150 -308.5t-437 -105.5q-12 1 -57 2.5t-81 3.5v-86q0 -62 3.5 -149t8.5 -199q-26 5 -47.5 7.5t-41.5 2.5q-23 0 -47 -2.5t-51 -7.5z" />
    <glyph glyph-name="germandbls" unicode="&#xdf;" horiz-adv-x="1116" 
d="M145 0q5 57 7 139.5t2 286.5v229q0 169 -2 358v62q0 217 108 339t299 122q140 0 219.5 -61t79.5 -166q0 -48 -21.5 -98.5t-64.5 -100.5l-80 -92q-39 -45 -55 -79t-16 -69q0 -40 23.5 -72.5t98.5 -84.5q16 -11 45 -31q256 -177 256 -320q0 -156 -124.5 -270.5
t-301.5 -114.5q-45 0 -89 12t-89 36q16 37 27.5 75t19.5 80q58 -64 105 -89t106 -25q95 0 154 57t59 147q0 74 -50 140t-182 156q-8 5 -25 17q-175 116 -175 218q0 43 18.5 80.5t84.5 107.5q101 107 133.5 168.5t32.5 124.5q0 93 -53.5 149t-141.5 56q-145 0 -198.5 -119
t-53.5 -612v-74q0 -238 3.5 -405t10.5 -277q-27 2 -44.5 3t-32.5 1q-28 0 -87 -4h-6z" />
    <glyph glyph-name="agrave" unicode="&#xe0;" horiz-adv-x="985" 
d="M662 508q-268 -45 -345 -95.5t-77 -152.5q0 -93 47.5 -143.5t134.5 -50.5q51 0 107.5 24.5t97.5 65.5q18 18 26.5 36.5t8.5 51.5v10v254zM659 119q-65 -68 -141.5 -102.5t-163.5 -34.5q-135 0 -208.5 65.5t-73.5 185.5q0 109 58.5 174.5t178.5 92.5q51 11 139 27
q181 33 218 67v43q0 141 -54.5 204.5t-173.5 63.5q-84 0 -150 -36.5t-114 -108.5h-16l4 108q67 56 151 85.5t179 29.5q169 0 246 -81.5t77 -262.5v-25l-8 -350v-57q0 -83 19 -109t71 -26q14 0 21.5 0.5t13.5 0.5l8 -40l-6 -2q-104 -31 -162 -31q-50 0 -76.5 27.5t-36.5 91.5
zM670 1098h-67l-330 205q-31 20 -46.5 40t-15.5 41q0 32 20.5 52t53.5 20q20 0 40.5 -12t55.5 -47z" />
    <glyph glyph-name="aacute" unicode="&#xe1;" horiz-adv-x="985" 
d="M662 508q-268 -45 -345 -95.5t-77 -152.5q0 -93 47.5 -143.5t134.5 -50.5q51 0 107.5 24.5t97.5 65.5q18 18 26.5 36.5t8.5 51.5v10v254zM659 119q-65 -68 -141.5 -102.5t-163.5 -34.5q-135 0 -208.5 65.5t-73.5 185.5q0 109 58.5 174.5t178.5 92.5q51 11 139 27
q181 33 218 67v43q0 141 -54.5 204.5t-173.5 63.5q-84 0 -150 -36.5t-114 -108.5h-16l4 108q67 56 151 85.5t179 29.5q169 0 246 -81.5t77 -262.5v-25l-8 -350v-57q0 -83 19 -109t71 -26q14 0 21.5 0.5t13.5 0.5l8 -40l-6 -2q-104 -31 -162 -31q-50 0 -76.5 27.5t-36.5 91.5
zM318 1098l289 299q35 35 55.5 47t40.5 12q33 0 53.5 -20t20.5 -52q0 -21 -15.5 -41t-46.5 -40l-330 -205h-67z" />
    <glyph glyph-name="acircumflex" unicode="&#xe2;" horiz-adv-x="985" 
d="M662 508q-268 -45 -345 -95.5t-77 -152.5q0 -93 47.5 -143.5t134.5 -50.5q51 0 107.5 24.5t97.5 65.5q18 18 26.5 36.5t8.5 51.5v10v254zM659 119q-65 -68 -141.5 -102.5t-163.5 -34.5q-135 0 -208.5 65.5t-73.5 185.5q0 109 58.5 174.5t178.5 92.5q51 11 139 27
q181 33 218 67v43q0 141 -54.5 204.5t-173.5 63.5q-84 0 -150 -36.5t-114 -108.5h-16l4 108q67 56 151 85.5t179 29.5q169 0 246 -81.5t77 -262.5v-25l-8 -350v-57q0 -83 19 -109t71 -26q14 0 21.5 0.5t13.5 0.5l8 -40l-6 -2q-104 -31 -162 -31q-50 0 -76.5 27.5t-36.5 91.5
zM203 1098l232 348h118l232 -348h-58l-233 209l-233 -209h-58z" />
    <glyph glyph-name="atilde" unicode="&#xe3;" horiz-adv-x="985" 
d="M662 508q-268 -45 -345 -95.5t-77 -152.5q0 -93 47.5 -143.5t134.5 -50.5q51 0 107.5 24.5t97.5 65.5q18 18 26.5 36.5t8.5 51.5v10v254zM659 119q-65 -68 -141.5 -102.5t-163.5 -34.5q-135 0 -208.5 65.5t-73.5 185.5q0 109 58.5 174.5t178.5 92.5q51 11 139 27
q181 33 218 67v43q0 141 -54.5 204.5t-173.5 63.5q-84 0 -150 -36.5t-114 -108.5h-16l4 108q67 56 151 85.5t179 29.5q169 0 246 -81.5t77 -262.5v-25l-8 -350v-57q0 -83 19 -109t71 -26q14 0 21.5 0.5t13.5 0.5l8 -40l-6 -2q-104 -31 -162 -31q-50 0 -76.5 27.5t-36.5 91.5
zM781 1397q-20 -105 -68.5 -157t-126.5 -52q-21 0 -68 11q-4 1 -6 1l-109 29q-12 3 -24 4.5t-24 1.5q-39 0 -60.5 -19.5t-36.5 -68.5h-51q19 104 68 156.5t129 52.5q17 0 32.5 -2t30.5 -6l111 -29q23 -6 35 -8t20 -2q36 0 58 20.5t36 67.5h54z" />
    <glyph glyph-name="adieresis" unicode="&#xe4;" horiz-adv-x="985" 
d="M662 508q-268 -45 -345 -95.5t-77 -152.5q0 -93 47.5 -143.5t134.5 -50.5q51 0 107.5 24.5t97.5 65.5q18 18 26.5 36.5t8.5 51.5v10v254zM659 119q-65 -68 -141.5 -102.5t-163.5 -34.5q-135 0 -208.5 65.5t-73.5 185.5q0 109 58.5 174.5t178.5 92.5q51 11 139 27
q181 33 218 67v43q0 141 -54.5 204.5t-173.5 63.5q-84 0 -150 -36.5t-114 -108.5h-16l4 108q67 56 151 85.5t179 29.5q169 0 246 -81.5t77 -262.5v-25l-8 -350v-57q0 -83 19 -109t71 -26q14 0 21.5 0.5t13.5 0.5l8 -40l-6 -2q-104 -31 -162 -31q-50 0 -76.5 27.5t-36.5 91.5
zM570 1251q0 40 30 70.5t70 30.5t69 -30t29 -71q0 -42 -28 -71t-70 -29t-71 29t-29 71zM220 1251q0 41 29 71t69 30t70 -30.5t30 -70.5q0 -42 -29 -71t-71 -29t-70 29t-28 71z" />
    <glyph glyph-name="aring" unicode="&#xe5;" horiz-adv-x="985" 
d="M504 1483q-75 0 -118.5 -53.5t-43.5 -145.5q0 -80 40 -124t112 -44q75 0 118 51.5t43 143.5q0 80 -40.5 126t-110.5 46zM492 1053q-106 0 -174 66t-68 169q0 107 74.5 181.5t181.5 74.5q109 0 176.5 -65t67.5 -170q0 -109 -74.5 -182.5t-183.5 -73.5zM662 508
q-268 -45 -345 -95.5t-77 -152.5q0 -93 47.5 -143.5t134.5 -50.5q51 0 107.5 24.5t97.5 65.5q18 18 26.5 36.5t8.5 51.5v10v254zM659 119q-65 -68 -141.5 -102.5t-163.5 -34.5q-135 0 -208.5 65.5t-73.5 185.5q0 109 58.5 174.5t178.5 92.5q51 11 139 27q181 33 218 67v43
q0 141 -54.5 204.5t-173.5 63.5q-84 0 -150 -36.5t-114 -108.5h-16l4 108q67 56 151 85.5t179 29.5q169 0 246 -81.5t77 -262.5v-25l-8 -350v-57q0 -83 19 -109t71 -26q14 0 21.5 0.5t13.5 0.5l8 -40l-6 -2q-104 -31 -162 -31q-50 0 -76.5 27.5t-36.5 91.5z" />
    <glyph glyph-name="ae" unicode="&#xe6;" horiz-adv-x="1554" 
d="M657 506q-251 -33 -339.5 -87.5t-88.5 -164.5q0 -85 49 -136.5t132 -51.5q121 0 186.5 77t65.5 222v24zM805 567h526v37q0 150 -66.5 235t-183.5 85q-116 0 -194 -99t-82 -258zM700 221q-35 -118 -126 -179.5t-228 -61.5q-131 0 -205.5 67.5t-74.5 185.5
q0 109 58.5 174.5t178.5 92.5q51 11 139 27q181 33 217 67v43q0 141 -54 204.5t-173 63.5q-84 0 -150 -36.5t-114 -108.5h-16l6 108q67 59 150.5 89t176.5 30q99 0 168.5 -36t118.5 -113q68 78 145.5 113.5t180.5 35.5q185 0 290 -110t105 -306q0 -22 -4 -70v-5h-684v-29
q0 -186 87.5 -289.5t242.5 -103.5q94 0 172.5 34t144.5 103l-12 -111q-75 -60 -164.5 -90t-194.5 -30q-144 0 -247 65t-134 176z" />
    <glyph glyph-name="ccedilla" unicode="&#xe7;" horiz-adv-x="948" 
d="M901 82q-67 -52 -152.5 -77t-197.5 -25q-216 0 -347.5 137.5t-131.5 363.5q0 228 139 366t369 138q88 0 171 -20.5t162 -61.5q-16 -38 -30 -82t-25 -94q-43 97 -112.5 145t-165.5 48q-163 0 -252.5 -114.5t-89.5 -322.5q0 -199 96.5 -315.5t259.5 -116.5q85 0 160 36
t149 112q0 -4 -1 -12q-3 -45 -3 -64q0 -18 0.5 -26t1.5 -15zM293 -375l30 68q66 -28 124 -43t106 -15q62 0 91.5 22.5t29.5 70.5q0 42 -31.5 66t-85.5 24q-12 0 -27 -1.5t-32 -4.5v188h63v-112q15 2 30.5 3.5t30.5 2.5q85 0 134 -43t49 -115q0 -82 -56.5 -128t-156.5 -46
q-65 0 -138.5 15.5t-160.5 47.5z" />
    <glyph glyph-name="egrave" unicode="&#xe8;" horiz-adv-x="1036" 
d="M905 98q-80 -58 -166.5 -87t-181.5 -29q-215 0 -349 138.5t-134 360.5q0 229 128.5 367.5t342.5 138.5q196 0 303.5 -116.5t107.5 -329.5q0 -7 -1 -22t-1 -23h-704v-7q0 -208 88 -317t256 -109q90 0 167 34t148 103q-2 -32 -3 -48.5t-1 -28.5v-25zM254 567h539v35
q0 151 -68 236.5t-188 85.5t-198.5 -98.5t-84.5 -258.5zM694 1098h-67l-330 205q-31 20 -46.5 40t-15.5 41q0 32 20.5 52t53.5 20q20 0 40.5 -12t55.5 -47z" />
    <glyph glyph-name="eacute" unicode="&#xe9;" horiz-adv-x="1036" 
d="M905 98q-80 -58 -166.5 -87t-181.5 -29q-215 0 -349 138.5t-134 360.5q0 229 128.5 367.5t342.5 138.5q196 0 303.5 -116.5t107.5 -329.5q0 -7 -1 -22t-1 -23h-704v-7q0 -208 88 -317t256 -109q90 0 167 34t148 103q-2 -32 -3 -48.5t-1 -28.5v-25zM254 567h539v35
q0 151 -68 236.5t-188 85.5t-198.5 -98.5t-84.5 -258.5zM342 1098l289 299q35 35 55.5 47t40.5 12q33 0 53.5 -20t20.5 -52q0 -21 -15.5 -41t-46.5 -40l-330 -205h-67z" />
    <glyph glyph-name="ecircumflex" unicode="&#xea;" horiz-adv-x="1036" 
d="M905 98q-80 -58 -166.5 -87t-181.5 -29q-215 0 -349 138.5t-134 360.5q0 229 128.5 367.5t342.5 138.5q196 0 303.5 -116.5t107.5 -329.5q0 -7 -1 -22t-1 -23h-704v-7q0 -208 88 -317t256 -109q90 0 167 34t148 103q-2 -32 -3 -48.5t-1 -28.5v-25zM254 567h539v35
q0 151 -68 236.5t-188 85.5t-198.5 -98.5t-84.5 -258.5zM227 1098l232 348h118l232 -348h-58l-233 209l-233 -209h-58z" />
    <glyph glyph-name="edieresis" unicode="&#xeb;" horiz-adv-x="1036" 
d="M905 98q-80 -58 -166.5 -87t-181.5 -29q-215 0 -349 138.5t-134 360.5q0 229 128.5 367.5t342.5 138.5q196 0 303.5 -116.5t107.5 -329.5q0 -7 -1 -22t-1 -23h-704v-7q0 -208 88 -317t256 -109q90 0 167 34t148 103q-2 -32 -3 -48.5t-1 -28.5v-25zM254 567h539v35
q0 151 -68 236.5t-188 85.5t-198.5 -98.5t-84.5 -258.5zM594 1251q0 40 30 70.5t70 30.5t69 -30t29 -71q0 -42 -28 -71t-70 -29t-71 29t-29 71zM244 1251q0 41 29 71t69 30t70 -30.5t30 -70.5q0 -42 -29 -71t-71 -29t-70 29t-28 71z" />
    <glyph glyph-name="igrave" unicode="&#xec;" horiz-adv-x="508" 
d="M170 0q5 141 7.5 266.5t2.5 241.5q0 106 -2.5 219.5t-7.5 238.5q20 -4 40 -6t44 -2t45 2.5t39 5.5q-5 -128 -7.5 -240.5t-2.5 -217.5q0 -116 2.5 -241.5t7.5 -265.5q-22 4 -43 6.5t-41 2.5q-19 0 -39 -2.5t-45 -7.5zM430 1098h-67l-330 205q-31 20 -46.5 40t-15.5 41
q0 32 20.5 52t53.5 20q20 0 40.5 -12t55.5 -47z" />
    <glyph glyph-name="iacute" unicode="&#xed;" horiz-adv-x="508" 
d="M170 0q5 141 7.5 266.5t2.5 241.5q0 106 -2.5 219.5t-7.5 238.5q20 -4 40 -6t44 -2t45 2.5t39 5.5q-5 -128 -7.5 -240.5t-2.5 -217.5q0 -116 2.5 -241.5t7.5 -265.5q-22 4 -43 6.5t-41 2.5q-19 0 -39 -2.5t-45 -7.5zM78 1098l289 299q35 35 55.5 47t40.5 12
q33 0 53.5 -20t20.5 -52q0 -21 -15.5 -41t-46.5 -40l-330 -205h-67z" />
    <glyph glyph-name="icircumflex" unicode="&#xee;" horiz-adv-x="508" 
d="M170 0q5 141 7.5 266.5t2.5 241.5q0 106 -2.5 219.5t-7.5 238.5q20 -4 40 -6t44 -2t45 2.5t39 5.5q-5 -128 -7.5 -240.5t-2.5 -217.5q0 -116 2.5 -241.5t7.5 -265.5q-22 4 -43 6.5t-41 2.5q-19 0 -39 -2.5t-45 -7.5zM-37 1098l232 348h118l232 -348h-58l-233 209
l-233 -209h-58z" />
    <glyph glyph-name="idieresis" unicode="&#xef;" horiz-adv-x="508" 
d="M170 0q5 141 7.5 266.5t2.5 241.5q0 106 -2.5 219.5t-7.5 238.5q20 -4 40 -6t44 -2t45 2.5t39 5.5q-5 -128 -7.5 -240.5t-2.5 -217.5q0 -116 2.5 -241.5t7.5 -265.5q-22 4 -43 6.5t-41 2.5q-19 0 -39 -2.5t-45 -7.5zM330 1251q0 40 30 70.5t70 30.5t69 -30t29 -71
q0 -42 -28 -71t-70 -29t-71 29t-29 71zM-20 1251q0 41 29 71t69 30t70 -30.5t30 -70.5q0 -42 -29 -71t-71 -29t-70 29t-28 71z" />
    <glyph glyph-name="eth" unicode="&#xf0;" horiz-adv-x="1118" 
d="M739 952q-42 52 -108.5 120.5t-153.5 148.5q-48 -41 -102.5 -89.5t-114.5 -103.5l-45 55q52 45 103.5 90t107.5 95q-54 54 -103 98.5t-96 83.5l92 86q48 -55 95 -105t92 -94q55 46 106 91.5t97 89.5l47 -60q-46 -34 -95.5 -76.5t-105.5 -95.5q267 -246 378 -431t111 -372
q0 -223 -135.5 -362t-349.5 -139t-349.5 139.5t-135.5 361.5q0 221 135.5 361.5t349.5 140.5q50 0 95 -8t85 -25zM559 43q154 0 232.5 111.5t78.5 330.5q0 211 -81.5 325t-231.5 114q-152 0 -230.5 -112t-78.5 -327q0 -217 79 -329.5t232 -112.5z" />
    <glyph glyph-name="ntilde" unicode="&#xf1;" horiz-adv-x="1120" 
d="M154 0q4 61 6 133.5t2 222.5v146q0 200 -2 293.5t-6 171.5q19 -4 40 -6.5t44 -2.5q24 0 43.5 2t35.5 7v-10q-4 -64 -4 -95q0 -12 1 -36.5t1 -37.5q59 101 138.5 150t183.5 49q163 0 245.5 -92t82.5 -274q0 -51 -2 -150.5t-2 -146.5q0 -77 1.5 -157.5t3.5 -166.5
q-23 5 -44 7.5t-39 2.5q-20 0 -39.5 -2.5t-44.5 -7.5q6 107 9 252.5t3 327.5q0 152 -58.5 227.5t-174.5 75.5q-61 0 -108.5 -22t-82.5 -66q-38 -48 -54 -115t-16 -205v-92q0 -177 2 -252t6 -131q-26 5 -47 7.5t-40 2.5q-20 0 -40 -2.5t-44 -7.5zM848 1397
q-20 -105 -68.5 -157t-126.5 -52q-21 0 -68 11q-4 1 -6 1l-109 29q-12 3 -24 4.5t-24 1.5q-39 0 -60.5 -19.5t-36.5 -68.5h-51q19 104 68 156.5t129 52.5q17 0 32.5 -2t30.5 -6l111 -29q23 -6 35 -8t20 -2q36 0 58 20.5t36 67.5h54z" />
    <glyph glyph-name="ograve" unicode="&#xf2;" horiz-adv-x="1118" 
d="M559 43q152 0 231.5 109.5t79.5 318.5q0 221 -80 337t-233 116q-152 0 -230.5 -112t-78.5 -327q0 -217 79 -329.5t232 -112.5zM559 -18q-214 0 -349.5 139.5t-135.5 361.5q0 220 137 361t348 141q215 0 350 -139.5t135 -362.5t-135.5 -362t-349.5 -139zM735 1098h-67
l-330 205q-31 20 -46.5 40t-15.5 41q0 32 20.5 52t53.5 20q20 0 40.5 -12t55.5 -47z" />
    <glyph glyph-name="oacute" unicode="&#xf3;" horiz-adv-x="1118" 
d="M559 43q152 0 231.5 109.5t79.5 318.5q0 221 -80 337t-233 116q-152 0 -230.5 -112t-78.5 -327q0 -217 79 -329.5t232 -112.5zM559 -18q-214 0 -349.5 139.5t-135.5 361.5q0 220 137 361t348 141q215 0 350 -139.5t135 -362.5t-135.5 -362t-349.5 -139zM383 1098l289 299
q35 35 55.5 47t40.5 12q33 0 53.5 -20t20.5 -52q0 -21 -15.5 -41t-46.5 -40l-330 -205h-67z" />
    <glyph glyph-name="ocircumflex" unicode="&#xf4;" horiz-adv-x="1118" 
d="M559 43q152 0 231.5 109.5t79.5 318.5q0 221 -80 337t-233 116q-152 0 -230.5 -112t-78.5 -327q0 -217 79 -329.5t232 -112.5zM559 -18q-214 0 -349.5 139.5t-135.5 361.5q0 220 137 361t348 141q215 0 350 -139.5t135 -362.5t-135.5 -362t-349.5 -139zM268 1098l232 348
h118l232 -348h-58l-233 209l-233 -209h-58z" />
    <glyph glyph-name="otilde" unicode="&#xf5;" horiz-adv-x="1118" 
d="M559 43q152 0 231.5 109.5t79.5 318.5q0 221 -80 337t-233 116q-152 0 -230.5 -112t-78.5 -327q0 -217 79 -329.5t232 -112.5zM559 -18q-214 0 -349.5 139.5t-135.5 361.5q0 220 137 361t348 141q215 0 350 -139.5t135 -362.5t-135.5 -362t-349.5 -139zM846 1397
q-20 -105 -68.5 -157t-126.5 -52q-21 0 -68 11q-4 1 -6 1l-109 29q-12 3 -24 4.5t-24 1.5q-39 0 -60.5 -19.5t-36.5 -68.5h-51q19 104 68 156.5t129 52.5q17 0 32.5 -2t30.5 -6l111 -29q23 -6 35 -8t20 -2q36 0 58 20.5t36 67.5h54z" />
    <glyph glyph-name="odieresis" unicode="&#xf6;" horiz-adv-x="1118" 
d="M559 43q152 0 231.5 109.5t79.5 318.5q0 221 -80 337t-233 116q-152 0 -230.5 -112t-78.5 -327q0 -217 79 -329.5t232 -112.5zM559 -18q-214 0 -349.5 139.5t-135.5 361.5q0 220 137 361t348 141q215 0 350 -139.5t135 -362.5t-135.5 -362t-349.5 -139zM635 1251
q0 40 30 70.5t70 30.5t69 -30t29 -71q0 -42 -28 -71t-70 -29t-71 29t-29 71zM285 1251q0 41 29 71t69 30t70 -30.5t30 -70.5q0 -42 -29 -71t-71 -29t-70 29t-28 71z" />
    <glyph glyph-name="divide" unicode="&#xf7;" horiz-adv-x="1706" 
d="M854 365q45 0 76 -31t31 -76q0 -44 -31 -75t-76 -31t-75.5 31t-30.5 75t31 75.5t75 31.5zM1452 659v-98h-1198v98h1198zM854 1071q44 0 75.5 -32t31.5 -76q0 -45 -31 -76t-76 -31t-75.5 30.5t-30.5 76.5q0 44 31.5 76t74.5 32z" />
    <glyph glyph-name="oslash" unicode="&#xf8;" horiz-adv-x="1118" 
d="M211 121q-69 69 -103 159t-34 203q0 220 137 361t348 141q80 0 150.5 -21t134.5 -65q34 45 69 94t72 103q22 -21 40.5 -33t37.5 -19q-55 -60 -94.5 -106.5t-69.5 -85.5q71 -68 108 -162t37 -207q0 -223 -135.5 -362t-349.5 -139q-89 0 -162.5 23t-132.5 69
q-65 -81 -99.5 -127.5t-60.5 -85.5q-16 19 -33 32t-38 23q41 41 83 89t95 116zM819 754l-491 -602q45 -58 99.5 -83.5t131.5 -25.5q154 0 232.5 111.5t78.5 330.5q0 76 -12.5 143t-38.5 126zM291 219l489 600q-36 54 -90.5 79.5t-132.5 25.5q-152 0 -230.5 -112t-78.5 -327
q0 -81 10.5 -146.5t32.5 -119.5z" />
    <glyph glyph-name="ugrave" unicode="&#xf9;" 
d="M807 -2v37q0 31 -3 110q-1 13 -1 19q-52 -95 -132.5 -141t-195.5 -46q-158 0 -239.5 86t-81.5 252q0 16 5 174.5t5 303.5q0 32 -1 70t-3 103q18 -4 38 -6t44 -2t45.5 2t42.5 7q-16 -145 -23.5 -290.5t-7.5 -287.5q0 -163 58 -239t182 -76q79 0 141.5 39t93.5 108
q20 45 28.5 134t8.5 360q0 64 -2.5 127t-7.5 124q19 -3 40 -5.5t46 -2.5q22 0 42 2.5t38 6.5q-5 -81 -7 -218t-2 -356q0 -142 2 -227t7 -166q-5 0 -29 3t-39 3q-17 0 -35.5 -1.5t-56.5 -6.5zM739 1098h-67l-330 205q-31 20 -46.5 40t-15.5 41q0 32 20.5 52t53.5 20
q20 0 40.5 -12t55.5 -47z" />
    <glyph glyph-name="uacute" unicode="&#xfa;" 
d="M807 -2v37q0 31 -3 110q-1 13 -1 19q-52 -95 -132.5 -141t-195.5 -46q-158 0 -239.5 86t-81.5 252q0 16 5 174.5t5 303.5q0 32 -1 70t-3 103q18 -4 38 -6t44 -2t45.5 2t42.5 7q-16 -145 -23.5 -290.5t-7.5 -287.5q0 -163 58 -239t182 -76q79 0 141.5 39t93.5 108
q20 45 28.5 134t8.5 360q0 64 -2.5 127t-7.5 124q19 -3 40 -5.5t46 -2.5q22 0 42 2.5t38 6.5q-5 -81 -7 -218t-2 -356q0 -142 2 -227t7 -166q-5 0 -29 3t-39 3q-17 0 -35.5 -1.5t-56.5 -6.5zM387 1098l289 299q35 35 55.5 47t40.5 12q33 0 53.5 -20t20.5 -52
q0 -21 -15.5 -41t-46.5 -40l-330 -205h-67z" />
    <glyph glyph-name="ucircumflex" unicode="&#xfb;" 
d="M807 -2v37q0 31 -3 110q-1 13 -1 19q-52 -95 -132.5 -141t-195.5 -46q-158 0 -239.5 86t-81.5 252q0 16 5 174.5t5 303.5q0 32 -1 70t-3 103q18 -4 38 -6t44 -2t45.5 2t42.5 7q-16 -145 -23.5 -290.5t-7.5 -287.5q0 -163 58 -239t182 -76q79 0 141.5 39t93.5 108
q20 45 28.5 134t8.5 360q0 64 -2.5 127t-7.5 124q19 -3 40 -5.5t46 -2.5q22 0 42 2.5t38 6.5q-5 -81 -7 -218t-2 -356q0 -142 2 -227t7 -166q-5 0 -29 3t-39 3q-17 0 -35.5 -1.5t-56.5 -6.5zM272 1098l232 348h118l232 -348h-58l-233 209l-233 -209h-58z" />
    <glyph glyph-name="udieresis" unicode="&#xfc;" 
d="M807 -2v37q0 31 -3 110q-1 13 -1 19q-52 -95 -132.5 -141t-195.5 -46q-158 0 -239.5 86t-81.5 252q0 16 5 174.5t5 303.5q0 32 -1 70t-3 103q18 -4 38 -6t44 -2t45.5 2t42.5 7q-16 -145 -23.5 -290.5t-7.5 -287.5q0 -163 58 -239t182 -76q79 0 141.5 39t93.5 108
q20 45 28.5 134t8.5 360q0 64 -2.5 127t-7.5 124q19 -3 40 -5.5t46 -2.5q22 0 42 2.5t38 6.5q-5 -81 -7 -218t-2 -356q0 -142 2 -227t7 -166q-5 0 -29 3t-39 3q-17 0 -35.5 -1.5t-56.5 -6.5zM639 1251q0 40 30 70.5t70 30.5t69 -30t29 -71q0 -42 -28 -71t-70 -29t-71 29
t-29 71zM289 1251q0 41 29 71t69 30t70 -30.5t30 -70.5q0 -42 -29 -71t-71 -29t-70 29t-28 71z" />
    <glyph glyph-name="yacute" unicode="&#xfd;" horiz-adv-x="956" 
d="M154 -559q97 164 210 423q10 23 15 34l47 108l-86 225q-27 71 -116 275.5t-204 460.5q23 -5 47.5 -7t53.5 -2q28 0 52 2.5t46 6.5q27 -93 83 -245.5t136 -348.5l72 -176l74 170q76 173 133 323t97 276q15 -4 31.5 -6t37.5 -2q19 0 35.5 2.5t31.5 6.5
q-39 -77 -84.5 -175.5t-109.5 -246.5l-275 -621q-92 -210 -129.5 -310t-56.5 -173q-18 3 -35 4.5t-35 1.5q-17 0 -35 -1.5t-36 -4.5zM303 1098l289 299q35 35 55.5 47t40.5 12q33 0 53.5 -20t20.5 -52q0 -21 -15.5 -41t-46.5 -40l-330 -205h-67z" />
    <glyph glyph-name="thorn" unicode="&#xfe;" horiz-adv-x="1143" 
d="M305 481q0 -209 75 -318.5t218 -109.5q142 0 218.5 113t76.5 321q0 200 -77.5 308t-217.5 108q-138 0 -215.5 -111t-77.5 -311zM158 -559q5 225 7.5 480.5t2.5 582.5q0 373 -2.5 615t-7.5 417q19 -4 39.5 -6t44.5 -2t45 2t41 6q-8 -207 -12.5 -395.5t-6.5 -357.5
q62 105 145.5 155.5t198.5 50.5q201 0 307.5 -131t106.5 -377q0 -228 -117 -367t-305 -139q-111 0 -190.5 42.5t-137.5 132.5v-246q0 -26 5 -228q4 -144 5 -235q-24 5 -44.5 7.5t-38.5 2.5q-20 0 -41 -2.5t-45 -7.5z" />
    <glyph glyph-name="ydieresis" unicode="&#xff;" horiz-adv-x="956" 
d="M154 -559q97 164 210 423q10 23 15 34l47 108l-86 225q-27 71 -116 275.5t-204 460.5q23 -5 47.5 -7t53.5 -2q28 0 52 2.5t46 6.5q27 -93 83 -245.5t136 -348.5l72 -176l74 170q76 173 133 323t97 276q15 -4 31.5 -6t37.5 -2q19 0 35.5 2.5t31.5 6.5
q-39 -77 -84.5 -175.5t-109.5 -246.5l-275 -621q-92 -210 -129.5 -310t-56.5 -173q-18 3 -35 4.5t-35 1.5q-17 0 -35 -1.5t-36 -4.5zM555 1251q0 40 30 70.5t70 30.5t69 -30t29 -71q0 -42 -28 -71t-70 -29t-71 29t-29 71zM205 1251q0 41 29 71t69 30t70 -30.5t30 -70.5
q0 -42 -29 -71t-71 -29t-70 29t-28 71z" />
    <glyph glyph-name="Cacute" unicode="&#x106;" horiz-adv-x="1343" 
d="M1257 88q-77 -57 -192.5 -86t-265.5 -29q-341 0 -528 190t-187 535q0 332 206.5 529.5t553.5 197.5q121 0 232 -24.5t208 -73.5q-16 -53 -24.5 -101.5t-8.5 -95.5q-73 114 -173 167t-240 53q-258 0 -400.5 -171.5t-142.5 -482.5q0 -300 141.5 -472.5t386.5 -172.5
q115 0 229 44t218 128zM637 1536l289 299q35 35 55.5 47t40.5 12q33 0 53.5 -20t20.5 -52q0 -21 -15.5 -41t-46.5 -40l-330 -205h-67z" />
    <glyph glyph-name="cacute" unicode="&#x107;" horiz-adv-x="948" 
d="M901 82q-67 -52 -152.5 -77t-197.5 -25q-216 0 -347.5 137.5t-131.5 363.5q0 228 139 366t369 138q88 0 171 -20.5t162 -61.5q-16 -38 -30 -82t-25 -94q-43 97 -112.5 145t-165.5 48q-163 0 -252.5 -114.5t-89.5 -322.5q0 -199 96.5 -315.5t259.5 -116.5q85 0 160 36
t149 112q0 -4 -1 -12q-3 -45 -3 -64q0 -18 0.5 -26t1.5 -15zM397 1098l289 299q35 35 55.5 47t40.5 12q33 0 53.5 -20t20.5 -52q0 -21 -15.5 -41t-46.5 -40l-330 -205h-67z" />
    <glyph glyph-name="Ccaron" unicode="&#x10c;" horiz-adv-x="1343" 
d="M1257 88q-77 -57 -192.5 -86t-265.5 -29q-341 0 -528 190t-187 535q0 332 206.5 529.5t553.5 197.5q121 0 232 -24.5t208 -73.5q-16 -53 -24.5 -101.5t-8.5 -95.5q-73 114 -173 167t-240 53q-258 0 -400.5 -171.5t-142.5 -482.5q0 -300 141.5 -472.5t386.5 -172.5
q115 0 229 44t218 128zM522 1884h58l233 -211l233 211h58l-232 -348h-118z" />
    <glyph glyph-name="ccaron" unicode="&#x10d;" horiz-adv-x="948" 
d="M901 82q-67 -52 -152.5 -77t-197.5 -25q-216 0 -347.5 137.5t-131.5 363.5q0 228 139 366t369 138q88 0 171 -20.5t162 -61.5q-16 -38 -30 -82t-25 -94q-43 97 -112.5 145t-165.5 48q-163 0 -252.5 -114.5t-89.5 -322.5q0 -199 96.5 -315.5t259.5 -116.5q85 0 160 36
t149 112q0 -4 -1 -12q-3 -45 -3 -64q0 -18 0.5 -26t1.5 -15zM282 1446h58l233 -211l233 211h58l-232 -348h-118z" />
    <glyph glyph-name="dcroat" unicode="&#x111;" horiz-adv-x="1151" 
d="M547 907q-144 0 -224.5 -114.5t-80.5 -319.5q0 -196 74 -305t208 -109q149 0 229.5 117.5t80.5 335.5q0 187 -76 291t-211 104zM832 0q2 48 3 73t1 46q0 33 -0.5 49t-2.5 30q-59 -112 -143.5 -164t-206.5 -52q-186 0 -298.5 132.5t-112.5 352.5q0 231 121 374.5
t313 143.5q105 0 185 -46.5t138 -141.5q1 59 1.5 112.5t0.5 102.5v108.5t-2 69.5q-38 -1 -111 -2q-150 -2 -222 -4v86q49 -3 123.5 -5t211.5 -3q0 50 -1.5 118t-4.5 156q37 -8 56.5 -11t31.5 -3q16 0 38 3.5t50 10.5q-4 -73 -6 -141t-2 -133q62 2 93.5 3.5t56.5 3.5v-85
q-12 0 -61.5 1.5t-85.5 4.5q-1 -75 -3 -199q-2 -175 -2 -223q0 -168 2.5 -356t7.5 -412q-27 5 -47.5 7.5t-35.5 2.5q-16 0 -36 -2.5t-50 -7.5z" />
    <glyph glyph-name="Gbreve" unicode="&#x11e;" horiz-adv-x="1495" 
d="M1393 61q-144 -42 -282 -64t-263 -22q-352 0 -557 190t-205 513q0 340 220.5 543.5t590.5 203.5q148 0 275 -33t229 -98q-16 -47 -28 -91.5t-21 -88.5q-82 118 -202 176t-286 58q-259 0 -417 -178t-158 -474q0 -292 164.5 -468.5t435.5 -176.5q87 0 168.5 17t163.5 53
q0 19 3 89.5t3 111.5q0 48 -2 105.5t-6 156.5q35 -5 52.5 -6.5t33.5 -2.5q15 1 33 2.5t52 6.5q-2 -109 -4 -189.5t-2 -132.5q0 -60 2 -109.5t7 -91.5zM455 1845h51q17 -73 75 -107t167 -34t166 33.5t74 107.5h51q-20 -133 -94 -201.5t-197 -68.5q-122 0 -197 68.5t-96 201.5
z" />
    <glyph glyph-name="gbreve" unicode="&#x11f;" horiz-adv-x="936" 
d="M688 662q0 130 -55 200t-158 70t-166 -74.5t-63 -195.5q0 -128 60.5 -199.5t168.5 -71.5q105 0 159 68.5t54 202.5zM357 -4q-88 -28 -134.5 -90t-46.5 -150q0 -115 78 -186.5t205 -71.5q152 0 250 81t98 206q0 122 -75.5 168.5t-311.5 46.5q-9 0 -22.5 -1zM289 371
q-102 32 -153.5 101t-51.5 173q0 158 110 251t298 93q55 0 134 -11t105 -11q24 0 77.5 4t121.5 12l-1 -90q-33 3 -64 4.5t-62 1.5h-41q41 -55 60.5 -111.5t19.5 -121.5q0 -153 -99 -240.5t-272 -87.5q-27 0 -64.5 4t-48.5 4q-44 0 -70 -26t-26 -70q0 -59 37 -85t123 -26h115
q229 0 320 -64t91 -214q0 -189 -144 -306.5t-378 -117.5q-170 0 -270.5 80t-100.5 215q0 103 55.5 170.5t172.5 105.5q-73 17 -114.5 63t-41.5 109q0 57 38 102t124 89zM176 1407h51q17 -73 75 -107t167 -34t166 33.5t74 107.5h51q-20 -133 -94 -201.5t-197 -68.5
q-122 0 -197 68.5t-96 201.5z" />
    <glyph glyph-name="Idotaccent" unicode="&#x130;" horiz-adv-x="563" 
d="M188 0q7 100 10 222.5t3 305.5v170q0 327 -3 463.5t-10 237.5q21 -4 43.5 -6t49.5 -2t50.5 2t47.5 6q-7 -69 -9.5 -161t-2.5 -241v-299v-338q0 -162 2.5 -233.5t9.5 -126.5q-22 4 -45 6t-49 2q-27 0 -51 -2t-46 -6zM179 1689q0 45 30.5 76t73.5 31q44 0 74 -31t30 -76
q0 -42 -31 -73t-73 -31q-41 0 -72.5 31.5t-31.5 72.5z" />
    <glyph glyph-name="dotlessi" unicode="&#x131;" horiz-adv-x="508" 
d="M170 0q5 141 7.5 266.5t2.5 241.5q0 106 -2.5 219.5t-7.5 238.5q20 -4 40 -6t44 -2t45 2.5t39 5.5q-5 -128 -7.5 -240.5t-2.5 -217.5q0 -116 2.5 -241.5t7.5 -265.5q-22 4 -43 6.5t-41 2.5q-19 0 -39 -2.5t-45 -7.5z" />
    <glyph glyph-name="Lslash" unicode="&#x141;" horiz-adv-x="1012" 
d="M191 0q4 130 7.5 283t6.5 319q-45 -32 -89.5 -67t-92.5 -74l-48 82q46 29 182 116l48 32q-2 229 -5.5 401.5t-8.5 306.5q22 -4 45 -6t49 -2t49.5 2t44.5 5q-5 -79 -9.5 -229t-8.5 -370q70 50 134.5 99t118.5 93l45 -84q-50 -30 -128.5 -83t-169.5 -119q1 -202 4.5 -350
t9.5 -259q23 -1 50 -1.5t87 -0.5q138 0 242 8t178 25q0 -10 -1 -31t-1 -33q0 -9 1 -30t0 -33q-179 3 -299 4.5t-177 1.5q-71 0 -137.5 -1.5t-126.5 -4.5z" />
    <glyph glyph-name="lslash" unicode="&#x142;" horiz-adv-x="485" 
d="M158 0q4 118 6 248t2 270v154q-4 -2 -52.5 -41.5t-88.5 -71.5l-45 78q46 27 93 57t95 64v196q0 196 -2.5 333.5t-7.5 248.5q30 -2 48 -3t34 -1t35.5 1t52.5 3q-5 -107 -8 -242t-3 -288v-146q40 29 76.5 58t71.5 59l47 -80q-45 -26 -91.5 -55.5t-103.5 -67.5
q0 -271 3 -470.5t7 -303.5q-22 3 -44 4.5t-43 1.5q-22 0 -42 -1.5t-40 -4.5z" />
    <glyph glyph-name="OE" unicode="&#x152;" horiz-adv-x="2052" 
d="M1321 172q-80 -96 -217 -147.5t-313 -51.5q-323 0 -515 196.5t-192 526.5q0 333 198.5 531t530.5 198q180 0 306.5 -46.5t211.5 -143.5v163q48 -2 102 -3.5t115 -1.5q73 0 183.5 1.5t258.5 4.5q1 -9 0 -29t-1 -31q0 -9 1 -29t1 -30q-110 10 -222 15t-227 5h-45
q0 -30 -1 -91q-3 -246 -3 -341v-82h35q85 0 189.5 4.5t221.5 12.5q-1 -10 -1.5 -21.5t-0.5 -36.5t0.5 -38t1.5 -25q-47 9 -115 12.5t-243 3.5h-88v-166q0 -146 0.5 -242t1.5 -189l47 -1q83 0 200.5 6t256.5 17q0 -10 -1 -30.5t-1 -31.5q0 -10 1 -30.5t1 -30.5q-54 2 -120 3
t-204 1q-142 0 -215.5 -1t-138.5 -3v172zM809 49q253 0 387.5 167t134.5 482q0 342 -124.5 497t-397.5 155q-249 0 -385.5 -170.5t-136.5 -481.5q0 -316 133.5 -482.5t388.5 -166.5z" />
    <glyph glyph-name="oe" unicode="&#x153;" horiz-adv-x="1817" 
d="M1039 567h546v35q0 152 -68.5 237t-191.5 85q-122 0 -202 -98.5t-84 -258.5zM571 43q152 0 232 109.5t80 318.5q0 221 -80 337t-234 116q-152 0 -231.5 -112t-79.5 -327q0 -216 80 -329t233 -113zM956 160q-75 -93 -175 -136.5t-234 -43.5q-209 0 -340 137t-131 356
q0 230 143 373t375 143q117 0 210 -44.5t157 -129.5q64 85 159 129.5t211 44.5q197 0 305.5 -113t108.5 -317q0 -25 -0.5 -37.5t-1.5 -23.5h-711q0 -8 -1 -21.5t-1 -19.5q0 -181 98 -290.5t258 -109.5q86 0 164.5 37.5t145.5 110.5l-4 -101q-59 -61 -146 -92.5t-198 -31.5
q-130 0 -232 46.5t-160 133.5z" />
    <glyph glyph-name="Scedilla" unicode="&#x15e;" horiz-adv-x="1004" 
d="M86 82q18 54 29.5 108.5t15.5 108.5q45 -115 134.5 -179.5t203.5 -64.5q133 0 213 82t80 219q0 95 -46 153.5t-161 104.5l-166 70q-142 59 -207 141t-65 203q0 174 120 284.5t312 110.5q83 0 159 -18.5t152 -56.5q-15 -33 -29.5 -71.5t-27.5 -86.5q-54 79 -125 118.5
t-158 39.5q-113 0 -179.5 -68.5t-66.5 -185.5q0 -86 47.5 -143.5t159.5 -106.5l166 -72q146 -62 208.5 -145t62.5 -211q0 -199 -134 -321t-354 -122q-101 0 -188 28t-156 81zM234 -375l30 68q66 -28 124 -43t106 -15q62 0 91.5 22.5t29.5 70.5q0 42 -31.5 66t-85.5 24
q-12 0 -27 -1.5t-32 -4.5v188h63v-112q15 2 30.5 3.5t30.5 2.5q85 0 134 -43t49 -115q0 -82 -56.5 -128t-156.5 -46q-65 0 -138.5 15.5t-160.5 47.5z" />
    <glyph glyph-name="scedilla" unicode="&#x15f;" horiz-adv-x="729" 
d="M99 212q50 -77 112.5 -116t136.5 -39q92 0 145.5 50t53.5 137q0 66 -36 104t-126 64l-94 26q-118 33 -169.5 95t-51.5 169q0 126 86.5 204.5t226.5 78.5q72 0 137 -17t118 -50q-14 -32 -25 -64.5t-17 -65.5q-59 69 -118 102.5t-120 33.5q-77 0 -125.5 -48t-48.5 -124
q0 -68 36 -108t120 -64l139 -41q104 -30 150.5 -86t46.5 -150q0 -141 -101.5 -231t-261.5 -90q-78 0 -145.5 18.5t-118.5 54.5q15 39 27.5 79t22.5 78zM97 -375l30 68q66 -28 124 -43t106 -15q62 0 91.5 22.5t29.5 70.5q0 42 -31.5 66t-85.5 24q-12 0 -27 -1.5t-32 -4.5v188
h63v-112q15 2 30.5 3.5t30.5 2.5q85 0 134 -43t49 -115q0 -82 -56.5 -128t-156.5 -46q-65 0 -138.5 15.5t-160.5 47.5z" />
    <glyph glyph-name="Scaron" unicode="&#x160;" horiz-adv-x="1004" 
d="M86 82q18 54 29.5 108.5t15.5 108.5q45 -115 134.5 -179.5t203.5 -64.5q133 0 213 82t80 219q0 95 -46 153.5t-161 104.5l-166 70q-142 59 -207 141t-65 203q0 174 120 284.5t312 110.5q83 0 159 -18.5t152 -56.5q-15 -33 -29.5 -71.5t-27.5 -86.5q-54 79 -125 118.5
t-158 39.5q-113 0 -179.5 -68.5t-66.5 -185.5q0 -86 47.5 -143.5t159.5 -106.5l166 -72q146 -62 208.5 -145t62.5 -211q0 -199 -134 -321t-354 -122q-101 0 -188 28t-156 81zM211 1884h58l233 -211l233 211h58l-232 -348h-118z" />
    <glyph glyph-name="scaron" unicode="&#x161;" horiz-adv-x="729" 
d="M99 212q50 -77 112.5 -116t136.5 -39q92 0 145.5 50t53.5 137q0 66 -36 104t-126 64l-94 26q-118 33 -169.5 95t-51.5 169q0 126 86.5 204.5t226.5 78.5q72 0 137 -17t118 -50q-14 -32 -25 -64.5t-17 -65.5q-59 69 -118 102.5t-120 33.5q-77 0 -125.5 -48t-48.5 -124
q0 -68 36 -108t120 -64l139 -41q104 -30 150.5 -86t46.5 -150q0 -141 -101.5 -231t-261.5 -90q-78 0 -145.5 18.5t-118.5 54.5q15 39 27.5 79t22.5 78zM74 1446h58l233 -211l233 211h58l-232 -348h-118z" />
    <glyph glyph-name="Ydieresis" unicode="&#x178;" horiz-adv-x="1098" 
d="M467 0q5 86 7.5 157t2.5 136q0 64 -2.5 133.5t-7.5 146.5q-144 249 -262.5 450.5t-222.5 375.5q25 -4 52.5 -6t59.5 -2t60 2t53 6q81 -184 176.5 -357.5t206.5 -336.5q106 172 198 345.5t170 348.5q19 -4 37.5 -6t38.5 -2q22 0 40.5 2t35.5 6q-129 -210 -245 -407.5
t-220 -385.5q-2 -88 -3 -133t-1 -84q0 -87 2.5 -183.5t7.5 -205.5q-23 5 -45.5 7.5t-44.5 2.5t-45 -2.5t-49 -7.5zM625 1689q0 40 30 70.5t70 30.5t69 -30t29 -71q0 -42 -28 -71t-70 -29t-71 29t-29 71zM275 1689q0 41 29 71t69 30t70 -30.5t30 -70.5q0 -42 -29 -71t-71 -29
t-70 29t-28 71z" />
    <glyph glyph-name="Zcaron" unicode="&#x17d;" horiz-adv-x="1227" 
d="M17 0q239 338 459 663t421 637q-29 2 -62 2.5t-102 0.5q-138 0 -291.5 -6t-322.5 -17v5q4 36 4 54q0 12 -1 25.5t-3 33.5q222 -4 334 -5.5t209 -1.5q95 0 206.5 1.5t333.5 6.5q-254 -336 -478.5 -659t-422.5 -635q101 -3 152 -4t94 -1q146 0 301 6t317 17
q-1 -11 -1.5 -23.5t-0.5 -38.5q0 -27 0.5 -39t1.5 -22q-59 1 -288 3.5t-365 2.5q-127 0 -251 -1.5t-244 -4.5zM323 1884h58l233 -211l233 211h58l-232 -348h-118z" />
    <glyph glyph-name="zcaron" unicode="&#x17e;" horiz-adv-x="922" 
d="M-4 0v43q236 291 390 490t257 346h-82q-115 0 -229.5 -7.5t-226.5 -21.5q1 8 1 16.5v26.5q0 20 -3 61v11q88 -3 174.5 -5t168.5 -2q109 0 212.5 2t203.5 4v-38q-207 -262 -360.5 -465.5t-271.5 -374.5q195 3 356.5 10.5t265.5 17.5q-3 -18 -3.5 -26.5t-0.5 -17.5
q0 -18 1.5 -35t4.5 -35q-190 5 -288 6.5t-183 1.5q-112 0 -206.5 -2t-180.5 -6zM170 1446h58l233 -211l233 211h58l-232 -348h-118z" />
    <glyph glyph-name="florin" unicode="&#x192;" 
d="M707 737q44 0 96 1.5t112 4.5l-10 -71q-31 2 -72 3t-136 1q-8 -40 -22 -117q-143 -783 -282 -924q-58 -58 -122 -89t-126 -31q-24 0 -45 5t-39 15q16 37 28.5 73.5t23.5 74.5q33 -33 65.5 -49.5t65.5 -16.5q112 0 177 365q11 62 17 96l108 600q-53 -2 -105.5 -3.5
t-104.5 -2.5l14 73q48 -3 100.5 -4.5t108.5 -1.5q45 236 78 327.5t82 150.5q58 69 126 108t132 39q25 0 45.5 -5t38.5 -16q-15 -33 -26.5 -69.5t-18.5 -72.5q-32 28 -63 43.5t-58 15.5q-64 0 -95 -52t-65 -274z" />
    <glyph glyph-name="circumflex" unicode="&#x2c6;" horiz-adv-x="1024" 
d="M221 1098l232 348h118l232 -348h-58l-233 209l-233 -209h-58z" />
    <glyph glyph-name="caron" unicode="&#x2c7;" horiz-adv-x="1024" 
d="M221 1446h58l233 -211l233 211h58l-232 -348h-118z" />
    <glyph glyph-name="breve" unicode="&#x2d8;" horiz-adv-x="1024" 
d="M219 1407h51q17 -73 75 -107t167 -34t166 33.5t74 107.5h51q-20 -133 -94 -201.5t-197 -68.5q-122 0 -197 68.5t-96 201.5z" />
    <glyph glyph-name="dotaccent" unicode="&#x2d9;" horiz-adv-x="1024" 
d="M408 1251q0 45 30.5 76t73.5 31q44 0 74 -31t30 -76q0 -42 -31 -73t-73 -31q-41 0 -72.5 31.5t-31.5 72.5z" />
    <glyph glyph-name="ring" unicode="&#x2da;" horiz-adv-x="1024" 
d="M518 1503q-74 0 -118 -53t-44 -145q0 -80 40.5 -124t113.5 -44q75 0 117.5 51t42.5 143q0 80 -41 126t-111 46zM506 1073q-106 0 -174 66.5t-68 169.5q0 107 75 181.5t181 74.5q110 0 177 -65t67 -171q0 -108 -74.5 -182t-183.5 -74z" />
    <glyph glyph-name="ogonek" unicode="&#x2db;" horiz-adv-x="1024" 
d="M592 31q-91 -71 -135.5 -137t-44.5 -130q0 -54 27 -86t73 -32q40 0 69.5 18t49.5 55l28 -18q-36 -72 -90.5 -111t-119.5 -39q-70 0 -114 40.5t-44 103.5q0 88 62 170.5t190 165.5h49z" />
    <glyph glyph-name="tilde" unicode="&#x2dc;" horiz-adv-x="1024" 
d="M799 1397q-20 -105 -68.5 -157t-126.5 -52q-21 0 -68 11q-4 1 -6 1l-109 29q-12 3 -24 4.5t-24 1.5q-39 0 -60.5 -19.5t-36.5 -68.5h-51q19 104 68 156.5t129 52.5q17 0 32.5 -2t30.5 -6l111 -29q23 -6 35 -8t20 -2q36 0 58 20.5t36 67.5h54z" />
    <glyph glyph-name="hungarumlaut" unicode="&#x2dd;" horiz-adv-x="1024" 
d="M594 1098l143 278q24 44 45.5 63t46.5 19q28 0 48 -20t20 -47q0 -16 -11 -36.5t-30 -41.5l-203 -215h-59zM319 1098l144 278q24 44 45.5 63t46.5 19q28 0 48 -20t20 -47q0 -16 -11 -36.5t-30 -41.5l-205 -215h-58z" />
    <glyph glyph-name="Omega" unicode="&#x3a9;" horiz-adv-x="1579" 
d="M1462 139v-139h-581v127q207 124 313 293.5t106 374.5q0 260 -141.5 420.5t-367.5 160.5q-228 0 -370 -160t-142 -419q0 -207 106.5 -377.5t312.5 -292.5v-127h-581v139h344q-173 133 -256.5 291.5t-83.5 353.5q0 320 188.5 524.5t481.5 204.5q291 0 480 -203.5
t189 -523.5q0 -196 -83.5 -354t-258.5 -293h344z" />
    <glyph glyph-name="pi" unicode="&#x3c0;" horiz-adv-x="1171" 
d="M1120 944h-182l-115 -541q-15 -69 -22.5 -117t-7.5 -71q0 -58 25 -82t85 -24q29 0 51 2.5t41 6.5l-26 -118q-28 -8 -53.5 -12t-47.5 -4q-101 0 -157 53t-56 149q0 46 11 118t45 233l86 407h-365l-199 -944h-139l199 944h-39q-55 0 -85.5 -31.5t-41.5 -99.5h-131
q25 143 88 197.5t215 54.5h848z" />
    <glyph glyph-name="endash" unicode="&#x2013;" horiz-adv-x="1024" 
d="M0 442v97h1024v-97h-1024z" />
    <glyph glyph-name="emdash" unicode="&#x2014;" horiz-adv-x="2048" 
d="M0 442v97h2048v-97h-2048z" />
    <glyph glyph-name="quoteleft" unicode="&#x2018;" horiz-adv-x="559" 
d="M444 1407l-127 -451q-11 -42 -36.5 -68t-55.5 -26q-33 0 -55.5 23t-22.5 57q1 16 6.5 33t20.5 43l242 407z" />
    <glyph glyph-name="quoteright" unicode="&#x2019;" horiz-adv-x="559" 
d="M160 881l125 450q11 43 37 68.5t55 25.5q33 0 56.5 -22.5t23.5 -56.5q0 -16 -6 -33t-21 -43l-244 -406z" />
    <glyph glyph-name="quotesinglbase" unicode="&#x201a;" horiz-adv-x="559" 
d="M90 -317l131 444q14 43 39 68.5t53 25.5q34 0 56 -22.5t22 -57.5q0 -15 -6 -32.5t-20 -42.5l-244 -400z" />
    <glyph glyph-name="quotedblleft" unicode="&#x201c;" horiz-adv-x="893" 
d="M780 1407l-127 -451q-14 -47 -37.5 -69.5t-60.5 -22.5q-32 0 -53 19.5t-21 50.5q0 18 6 36t23 48l242 407zM446 1407l-127 -451q-13 -47 -37 -69.5t-61 -22.5q-32 0 -53 19.5t-21 50.5q0 18 6 36t23 48l242 407z" />
    <glyph glyph-name="quotedblright" unicode="&#x201d;" horiz-adv-x="893" 
d="M160 881l125 450q11 43 37 68.5t55 25.5q33 0 56.5 -22.5t23.5 -56.5q0 -16 -6 -33t-21 -43l-244 -406zM494 881l124 450q12 43 37.5 68.5t55.5 25.5q33 0 56.5 -22.5t23.5 -56.5q-1 -17 -6.5 -33.5t-20.5 -42.5l-244 -406z" />
    <glyph glyph-name="quotedblbase" unicode="&#x201e;" horiz-adv-x="893" 
d="M422 -317l131 444q13 43 38.5 68.5t53.5 25.5q33 0 55.5 -22.5t22.5 -57.5q0 -18 -6 -36.5t-19 -38.5l-243 -400zM84 -317l131 444q13 43 38.5 68.5t53.5 25.5q33 0 55.5 -22.5t22.5 -57.5q0 -18 -6 -36.5t-19 -38.5l-243 -400z" />
    <glyph glyph-name="dagger" unicode="&#x2020;" horiz-adv-x="1012" 
d="M575 1399q-7 -105 -10.5 -226.5t-3.5 -254.5h66q86 0 157 3.5t129 10.5v-115q-36 7 -102 10.5t-168 3.5h-82v-219q0 -107 3.5 -264t10.5 -348h-140q6 162 10 315t4 297v156v63h-80q-103 0 -169 -3.5t-101 -10.5v115q62 -7 134 -10.5t154 -3.5h62q0 146 -4 272.5
t-11 208.5h141z" />
    <glyph glyph-name="daggerdbl" unicode="&#x2021;" horiz-adv-x="1012" 
d="M448 938h-106q-104 0 -159 -3t-84 -9v112q81 -7 156.5 -10.5t145.5 -3.5h47q-1 91 -3.5 178t-7.5 197h138q-3 -53 -6 -146.5t-5 -228.5h48q74 0 148.5 3.5t152.5 10.5v-112q-29 6 -84 9t-159 3h-106q-2 -37 -2.5 -81t-0.5 -134q0 -92 0.5 -139t1.5 -88h80q96 0 163 3
t105 9v-113q-60 8 -130 11.5t-154 3.5l-64 -1q2 -116 5 -218t7 -191h-138q3 62 5 148t4 262h-61q-81 0 -151.5 -3.5t-135.5 -10.5v112q39 -6 106 -9t163 -3h79l1 18q4 182 4 264q0 68 -0.5 100t-2.5 60z" />
    <glyph glyph-name="bullet" unicode="&#x2022;" horiz-adv-x="1208" 
d="M307 762q0 123 87 209t210 86q122 0 208.5 -86.5t86.5 -208.5t-87.5 -209.5t-209.5 -87.5q-123 0 -209 87t-86 210z" />
    <glyph glyph-name="ellipsis" unicode="&#x2026;" horiz-adv-x="2048" 
d="M227 94q0 48 33.5 81.5t81.5 33.5q47 0 80.5 -33.5t33.5 -81.5q0 -46 -34 -79t-80 -33q-48 0 -81.5 32.5t-33.5 79.5zM909 94q0 48 33.5 81.5t81.5 33.5q47 0 80.5 -33.5t33.5 -81.5q0 -46 -34 -79t-80 -33q-48 0 -81.5 32.5t-33.5 79.5zM1593 94q0 48 33.5 81.5
t81.5 33.5q47 0 80.5 -33.5t33.5 -81.5q0 -46 -34 -79t-80 -33q-48 0 -81.5 32.5t-33.5 79.5z" />
    <glyph glyph-name="perthousand" unicode="&#x2030;" horiz-adv-x="2314" 
d="M1939 600q-77 0 -117 -62t-40 -184q0 -158 37 -227.5t120 -69.5q79 0 117.5 62.5t38.5 191.5q0 154 -36.5 221.5t-119.5 67.5zM1626 330q0 143 90.5 237.5t227.5 94.5q135 0 217 -87t82 -233q0 -156 -89 -250t-235 -94q-132 0 -212.5 90.5t-80.5 241.5zM1200 600
q-78 0 -118 -62t-40 -184q0 -158 37.5 -227.5t120.5 -69.5q80 0 119 63t39 191q0 153 -37.5 221t-120.5 68zM379 1272q-78 0 -118 -63t-40 -185q0 -158 37 -227.5t121 -69.5q79 0 118.5 64t39.5 192q0 153 -37.5 221t-120.5 68zM885 330q0 143 90.5 237.5t226.5 94.5
q135 0 217 -87t82 -233q0 -157 -88 -250.5t-233 -93.5q-133 0 -214 91t-81 241zM358 -190h-96l961 1712h92zM72 999q0 144 90.5 238t226.5 94q135 0 217 -87t82 -232q0 -157 -88 -250.5t-233 -93.5q-133 0 -214 91t-81 240z" />
    <glyph glyph-name="guilsinglleft" unicode="&#x2039;" horiz-adv-x="483" 
d="M446 55l-43 -55l-329 483l329 484l43 -56l-241 -428z" />
    <glyph glyph-name="guilsinglright" unicode="&#x203a;" horiz-adv-x="483" 
d="M35 911l43 56l330 -484l-330 -483l-43 55l241 428z" />
    <glyph glyph-name="franc" unicode="&#x20a3;" horiz-adv-x="1681" 
d="M184 0q9 107 13 234t4 286q0 220 -4 439.5t-12 439.5q39 -2 94 -3t184 -1q152 0 252.5 1t199.5 3q0 -11 -1 -34t-1 -34t1 -32.5t1 -32.5q-68 15 -182.5 23t-310.5 11h-49q-3 -58 -4.5 -123t-1.5 -186v-141v-64h163q98 0 181 4t165 13q0 -10 -1 -23t-1 -39
q0 -24 0.5 -35.5t1.5 -21.5q-168 9 -275.5 12.5t-174.5 3.5h-59v-471q0 -113 1.5 -156.5t6.5 -72.5q-24 4 -49 6t-54 2q-25 0 -46.5 -2t-41.5 -6zM1162 2q4 100 6 260.5t2 407.5q0 131 -2 190.5t-6 106.5q20 -5 41.5 -7t46.5 -2q24 0 45 2.5t41 6.5q-6 -49 -9.5 -105.5
t-3.5 -120.5q57 120 120 178t136 58q12 0 30.5 -2.5t47.5 -8.5q-5 -27 -7.5 -64t-2.5 -91l-16 -10q-26 13 -50 19.5t-49 6.5q-112 0 -163.5 -98t-51.5 -315q0 -127 2.5 -233t7.5 -181q-19 4 -41 6t-47 2q-20 0 -38.5 -1.5t-38.5 -4.5z" />
    <glyph glyph-name="trademark" unicode="&#x2122;" horiz-adv-x="1706" 
d="M938 1454l166 -422l156 422h116v-530h-71v467l-177 -467h-49l-186 467v-467h-72v530h117zM694 1454v-57h-172v-473h-82v473h-176v57h430z" />
    <glyph glyph-name="partialdiff" unicode="&#x2202;" horiz-adv-x="1034" 
d="M752 592q12 83 18 160t6 149q0 158 -40 242t-115 84q-50 0 -108 -68.5t-103 -68.5q-31 0 -52.5 20t-21.5 47q0 62 63.5 107t155.5 45q165 0 264 -150.5t99 -406.5q0 -334 -136 -556.5t-333 -222.5q-143 0 -233.5 107t-90.5 278q0 179 109 304.5t262 125.5q98 0 160.5 -48
t95.5 -148zM711 463q0 128 -45 193t-134 65q-113 0 -186.5 -124.5t-73.5 -322.5q0 -126 44.5 -188.5t134.5 -62.5q112 0 186 125.5t74 314.5z" />
    <glyph glyph-name="Delta" unicode="&#x2206;" horiz-adv-x="1346" 
d="M1139 139l-467 1186l-465 -1186h932zM766 1473l590 -1473h-1366l590 1473h186z" />
    <glyph glyph-name="product" unicode="&#x220f;" horiz-adv-x="1509" 
d="M160 1473h1188v-1866h-168v1718h-852v-1718h-168v1866z" />
    <glyph glyph-name="summation" unicode="&#x2211;" horiz-adv-x="1317" 
d="M49 1473h1223v-144h-1014l705 -766l-740 -813h1057v-143h-1266v133l744 821l-709 772v140z" />
    <glyph glyph-name="minus" unicode="&#x2212;" horiz-adv-x="1706" 
d="M1452 659v-98h-1198v98h1198z" />
    <glyph glyph-name="fraction" unicode="&#x2215;" horiz-adv-x="342" 
d="M582 1522h100l-930 -1712h-94z" />
    <glyph glyph-name="periodcentered" unicode="&#x2219;" horiz-adv-x="561" 
d="M176 680q0 43 31 73.5t74 30.5t73.5 -30.5t30.5 -73.5q0 -44 -30.5 -74.5t-73.5 -30.5q-45 0 -75 30t-30 75z" />
    <glyph glyph-name="radical" unicode="&#x221a;" horiz-adv-x="1276" 
d="M1276 1636v-71h-125l-594 -1606h-41l-328 899l-114 -39l-19 58l246 86l272 -746l525 1419h178z" />
    <glyph glyph-name="infinity" unicode="&#x221e;" horiz-adv-x="1706" 
d="M897 559q52 -100 122 -149.5t159 -49.5q106 0 173.5 75t67.5 192q0 113 -62.5 187.5t-156.5 74.5q-86 0 -155 -74t-148 -256zM811 668q-52 99 -121.5 147.5t-159.5 48.5q-106 0 -173.5 -74.5t-67.5 -189.5q0 -112 63 -187t156 -75q87 0 156.5 75t146.5 255zM838 721
q72 144 149 206t182 62q124 0 215 -107.5t91 -265.5q0 -169 -81.5 -273.5t-211.5 -104.5q-95 0 -168 60.5t-146 203.5q-71 -139 -148 -201.5t-173 -62.5q-132 0 -223 106.5t-91 267.5q0 169 81.5 273t211.5 104q97 0 171.5 -64t140.5 -204z" />
    <glyph glyph-name="integral" unicode="&#x222b;" horiz-adv-x="985" 
d="M293 -272q104 0 117 713q2 127 4 196q11 486 98 698.5t268 212.5q70 0 114 -37t44 -96q0 -48 -28.5 -76t-78.5 -28q-78 0 -103 69.5t-34 69.5q-105 0 -116 -623q-4 -185 -7 -289q-15 -497 -101 -703t-267 -206q-69 0 -113.5 36t-44.5 91q0 51 31 81t82 30
q36 0 61.5 -16.5t40.5 -51.5q4 -9 7 -33q4 -38 26 -38z" />
    <glyph glyph-name="approxequal" unicode="&#x2248;" horiz-adv-x="1706" 
d="M1530 469q-106 -74 -201 -109.5t-186 -35.5q-101 0 -291 69.5t-287 69.5q-82 0 -171 -36.5t-216 -123.5v111q107 74 202 109.5t185 35.5q109 0 298.5 -68.5t279.5 -68.5q86 0 175 35.5t212 122.5v-111zM1530 807q-104 -74 -199 -109.5t-188 -35.5q-103 0 -292 69.5
t-286 69.5q-82 0 -171 -36.5t-216 -123.5v113q105 73 201 109t186 36q109 0 298.5 -69.5t279.5 -69.5q84 0 171 34.5t216 123.5v-111z" />
    <glyph glyph-name="notequal" unicode="&#x2260;" horiz-adv-x="1706" 
d="M1288 1110l-205 -264h369v-96h-432l-215 -277h647v-98h-709l-254 -324l-73 60l205 264h-367v98h428l215 277h-643v96h707l253 323z" />
    <glyph glyph-name="lessequal" unicode="&#x2264;" horiz-adv-x="1706" 
d="M1442 139v-98h-1178v98h1178zM1442 1075l-1010 -338l1010 -336v-106l-1178 401v84l1178 402v-107z" />
    <glyph glyph-name="greaterequal" unicode="&#x2265;" horiz-adv-x="1706" 
d="M1442 139v-98h-1178v98h1178zM1442 780v-84l-1178 -401v106l1010 336l-1010 338v107z" />
    <glyph glyph-name="lozenge" unicode="&#x25ca;" horiz-adv-x="1012" 
d="M506 1409l-385 -817l385 -825l385 825zM506 1653l500 -1061l-500 -1069l-500 1069z" />
    <glyph glyph-name="apple" unicode="&#xf000;" horiz-adv-x="1618" 
d="M836 1216q-1 6 -1.5 14t-0.5 23q0 124 95 229.5t236 131.5q1 -10 1.5 -23t0.5 -39q0 -131 -103.5 -234.5t-203.5 -103.5h-8q-3 0 -7.5 1t-8.5 1zM1505 403q-114 -247 -205 -342.5t-204 -95.5q-50 0 -131.5 33t-122.5 33q-45 0 -131 -33t-127 -33q-64 0 -128.5 44
t-129.5 132q-102 140 -157.5 295.5t-55.5 300.5q0 219 125 356.5t323 137.5q68 0 155 -34t124 -34q34 0 121.5 34t152.5 34q111 0 199 -39.5t160 -122.5q-102 -65 -151.5 -145.5t-49.5 -182.5q0 -113 60 -200t173 -138z" />
    <glyph glyph-name="fi" unicode="&#xf001;" horiz-adv-x="1100" 
d="M160 0q7 70 10.5 205t3.5 418v258q-23 -1 -69 -2t-68 -2v77h6q56 -4 80 -4q9 0 27.5 1t27.5 2q3 269 110 426t285 157q16 0 25 -0.5t16 -1.5l-20 -160q-26 12 -55.5 18.5t-61.5 6.5q-87 0 -130.5 -47.5t-43.5 -143.5q0 -38 4.5 -106t11.5 -150q16 0 46.5 -1t44.5 -1
q22 0 48.5 1t71.5 3v-83q-34 2 -128 6q-50 2 -78 4q0 -357 3.5 -566.5t12.5 -313.5q-24 4 -46.5 6.5t-43.5 2.5q-20 0 -42.5 -2.5t-47.5 -7.5zM741 1323q0 43 30.5 72.5t74.5 29.5q43 0 72.5 -29.5t29.5 -72.5t-30 -73.5t-72 -30.5q-43 0 -74 30.5t-31 73.5zM762 0
q5 141 7.5 266.5t2.5 241.5q0 106 -2.5 219.5t-7.5 238.5q20 -4 40 -6t44 -2t45 2.5t39 5.5q-5 -125 -7.5 -238.5t-2.5 -219.5q0 -116 2.5 -241.5t6.5 -266.5q-21 5 -42 7.5t-41 2.5q-19 0 -39 -2.5t-45 -7.5z" />
    <glyph glyph-name="fl" unicode="&#xf002;" horiz-adv-x="1100" 
d="M160 0q7 70 10.5 205t3.5 418v258q-23 -1 -69 -2t-68 -2v77h6q56 -4 80 -4q9 0 27.5 1t27.5 2q3 269 110 426t285 157q16 0 25 -0.5t16 -1.5l-20 -160q-26 12 -55.5 18.5t-61.5 6.5q-87 0 -130.5 -47.5t-43.5 -143.5q0 -38 4.5 -106t11.5 -150q16 0 46.5 -1t44.5 -1
q22 0 48.5 1t71.5 3v-83q-34 2 -128 6q-50 2 -78 4q0 -357 3.5 -566.5t12.5 -314.5q-19 4 -41.5 6t-48.5 2q-25 0 -47.5 -2t-42.5 -6zM762 0q5 104 7.5 279.5t2.5 660.5q0 279 -2.5 395.5t-7.5 200.5q30 -2 48.5 -3t35.5 -1q16 0 35.5 1t52.5 3q-7 -118 -9.5 -265t-2.5 -366
q0 -319 3 -545t8 -360q-37 5 -55.5 6.5t-33.5 1.5q-16 0 -32.5 -1.5t-49.5 -6.5z" />
    </font>
</defs>
</svg>
